<?xml version="1.0" encoding="UTF-8" standalone="no"?>
<!DOCTYPE svg PUBLIC "-//W3C//DTD SVG 1.1//EN" "http://www.w3.org/Graphics/SVG/1.1/DTD/svg11.dtd">
<svg xmlns="http://www.w3.org/2000/svg" version="1.1" viewBox="0.00 0.00 70.00 70.00">
<path fill="#009a92" d="
  M 44.11 34.84
  Q 43.60 35.24 43.77 36.26
  A 0.98 0.94 18.7 0 0 44.04 36.78
  L 52.89 45.63
  Q 54.04 46.77 52.89 47.91
  L 50.91 49.85
  Q 49.82 50.93 48.73 49.84
  L 40.04 41.15
  A 1.19 1.17 -14.9 0 0 39.46 40.82
  Q 37.54 40.32 37.60 42.13
  A 1.48 1.44 22.0 0 0 38.03 43.11
  L 46.94 52.04
  A 1.22 1.22 0.0 0 1 46.97 53.73
  L 45.52 55.30
  Q 44.78 56.11 44.15 55.21
  Q 42.26 52.47 39.46 51.47
  Q 39.00 51.31 38.82 50.84
  Q 37.29 46.72 33.12 45.13
  Q 32.70 44.97 32.53 44.54
  Q 30.87 40.37 26.63 38.63
  Q 26.25 38.47 26.10 38.08
  Q 25.24 35.80 22.91 33.72
  Q 19.40 30.58 16.20 33.87
  Q 13.44 36.71 10.78 39.31
  Q 10.36 39.73 9.90 39.35
  Q 5.39 35.57 3.62 31.03
  C -0.96 19.25 8.79 7.11 21.09 8.36
  Q 27.59 9.02 32.60 14.56
  Q 33.02 15.02 32.58 15.46
  Q 30.01 18.01 27.38 20.58
  C 25.32 22.59 23.34 24.53 23.72 27.68
  C 24.21 31.74 28.34 34.70 32.28 33.22
  Q 34.17 32.50 35.99 30.55
  Q 39.43 26.88 43.09 23.33
  A 0.28 0.28 0.0 0 1 43.47 23.33
  L 59.05 38.93
  Q 60.46 40.33 59.05 41.74
  L 57.34 43.45
  Q 56.14 44.65 54.92 43.47
  L 46.08 34.94
  Q 45.14 34.03 44.11 34.84
  Z"
/>
<path fill="#009a92" d="
  M 43.86 20.00
  A 1.42 1.41 -57.2 0 0 42.35 20.33
  L 33.42 29.43
  Q 31.30 31.59 28.57 30.28
  Q 28.12 30.06 27.81 29.69
  Q 25.55 26.90 28.07 24.34
  Q 33.96 18.36 39.42 12.99
  C 43.62 8.85 50.41 7.32 56.04 9.41
  C 67.80 13.79 71.06 28.49 62.10 37.54
  Q 61.88 37.77 61.65 37.54
  Q 53.13 29.01 44.55 20.45
  Q 44.25 20.15 43.86 20.00
  Z"
/>
<rect fill="#009a92" x="-5.22" y="-2.94" transform="translate(17.99,40.25) rotate(-44.9)" width="10.44" height="5.88" rx="1.32"/>
<rect fill="#009a92" x="-5.21" y="-2.96" transform="translate(24.29,46.55) rotate(-45.0)" width="10.42" height="5.92" rx="1.33"/>
<rect fill="#009a92" x="-2.96" y="-5.22" transform="translate(30.59,52.85) rotate(44.9)" width="5.92" height="10.44" rx="1.34"/>
<rect fill="#009a92" x="-2.95" y="-5.22" transform="translate(36.89,59.15) rotate(45.0)" width="5.90" height="10.44" rx="1.35"/>
</svg>
