<?xml version="1.0" encoding="UTF-8" standalone="no"?>
<!DOCTYPE svg PUBLIC "-//W3C//DTD SVG 1.1//EN" "http://www.w3.org/Graphics/SVG/1.1/DTD/svg11.dtd">
<svg xmlns="http://www.w3.org/2000/svg" version="1.1" viewBox="0.00 0.00 100.00 100.00">
<path fill="#009a92" d="
  M 27.70 28.21
  L 32.29 6.43
  A 0.54 0.54 0.0 0 1 32.82 6.00
  L 48.73 6.01
  A 0.22 0.22 0.0 0 1 48.89 6.38
  L 28.12 28.43
  Q 27.53 29.05 27.70 28.21
  Z"
/>
<path fill="#009a92" d="
  M 71.60 28.10
  L 51.56 6.60
  Q 51.00 6.00 51.82 6.00
  L 66.87 6.00
  Q 67.51 6.00 67.65 6.63
  L 72.18 27.79
  Q 72.44 29.00 71.60 28.10
  Z"
/>
<path fill="#009a92" d="
  M 72.05 7.98
  Q 71.85 7.06 72.50 7.74
  L 96.96 33.63
  A 0.22 0.21 67.8 0 1 96.81 34.00
  L 78.17 34.00
  A 0.73 0.72 -5.9 0 1 77.46 33.43
  L 72.05 7.98
  Z"
/>
<path fill="#009a92" d="
  M 22.47 33.69
  A 0.40 0.40 0.0 0 1 22.08 34.00
  L 3.02 33.99
  A 0.20 0.20 0.0 0 1 2.88 33.65
  L 27.50 7.75
  Q 28.02 7.20 27.87 7.95
  L 22.47 33.69
  Z"
/>
<path fill="#009a92" d="
  M 29.06 33.45
  L 49.77 11.16
  A 0.33 0.33 0.0 0 1 50.25 11.16
  L 70.96 33.45
  A 0.33 0.33 0.0 0 1 70.72 34.00
  L 29.30 34.00
  A 0.33 0.33 0.0 0 1 29.06 33.45
  Z"
/>
<path fill="#009a92" d="
  M 22.86 38.59
  L 41.57 87.92
  Q 42.05 89.18 41.22 88.12
  L 2.76 38.47
  A 0.29 0.29 0.0 0 1 2.99 38.00
  L 22.01 38.00
  Q 22.64 38.00 22.86 38.59
  Z"
/>
<path fill="#009a92" d="
  M 72.82 38.40
  L 50.28 96.86
  A 0.30 0.30 0.0 0 1 49.72 96.86
  L 27.18 38.40
  A 0.30 0.30 0.0 0 1 27.46 38.00
  L 72.54 38.00
  A 0.30 0.30 0.0 0 1 72.82 38.40
  Z"
/>
<path fill="#009a92" d="
  M 58.59 87.50
  L 77.15 38.59
  Q 77.34 38.09 77.87 38.08
  Q 96.71 37.75 97.18 38.04
  A 0.33 0.16 13.8 0 0 97.68 37.94
  Q 97.61 37.86 59.06 87.76
  Q 57.95 89.20 58.59 87.50
  Z"
/>
</svg>
