<?xml version="1.0" encoding="UTF-8" standalone="no"?>
<!DOCTYPE svg PUBLIC "-//W3C//DTD SVG 1.1//EN" "http://www.w3.org/Graphics/SVG/1.1/DTD/svg11.dtd">
<svg xmlns="http://www.w3.org/2000/svg" version="1.1" viewBox="0.00 0.00 100.00 100.00">
<path fill="#009a92" d="
  M 50.49 18.85
  C 59.35 11.76 72.66 9.57 81.79 16.64
  C 91.37 24.05 94.36 37.57 88.91 48.49
  Q 86.70 52.90 81.79 57.74
  Q 66.00 73.29 52.98 86.46
  A 4.15 4.14 44.9 0 1 47.10 86.47
  Q 31.64 71.03 16.38 55.76
  Q 7.61 46.98 8.56 34.61
  C 9.22 26.00 14.61 17.43 22.79 13.96
  C 31.63 10.21 42.28 13.16 49.54 18.86
  Q 50.02 19.23 50.49 18.85
  Z
  M 31.49 41.53
  C 28.96 38.40 28.29 36.69 30.82 33.11
  C 33.90 28.75 27.35 24.15 24.39 28.02
  Q 17.54 36.97 24.48 46.13
  C 28.36 51.25 35.15 46.05 31.49 41.53
  Z"
/>
</svg>
