<?xml version="1.0" encoding="UTF-8" standalone="no"?>
<!DOCTYPE svg PUBLIC "-//W3C//DTD SVG 1.1//EN" "http://www.w3.org/Graphics/SVG/1.1/DTD/svg11.dtd">
<svg xmlns="http://www.w3.org/2000/svg" version="1.1" viewBox="0.00 0.00 100.00 100.00">
<path fill="#009a92" d="
  M 50.57 85.25
  L 55.98 81.42
  Q 57.72 80.19 59.23 81.69
  Q 59.40 81.86 59.50 82.08
  Q 60.27 83.76 58.84 84.95
  Q 55.50 87.72 51.34 90.17
  Q 49.84 91.05 48.29 90.06
  Q 21.63 72.97 17.09 42.84
  C 16.07 36.06 16.48 28.64 16.45 21.65
  A 2.18 2.16 80.0 0 1 17.87 19.61
  L 49.04 8.05
  A 2.87 2.84 44.6 0 1 51.03 8.05
  L 81.76 19.43
  A 2.93 2.93 0.0 0 1 83.67 22.15
  C 83.77 32.37 83.93 41.60 81.17 51.22
  Q 80.46 53.73 78.10 52.98
  A 2.14 2.13 -74.4 0 1 76.67 50.44
  Q 79.77 37.75 78.80 23.65
  Q 78.77 23.29 78.44 23.17
  L 50.68 12.85
  A 1.70 1.70 0.0 0 0 49.52 12.85
  L 21.47 23.20
  Q 21.15 23.31 21.14 23.65
  Q 20.83 30.34 21.26 37.71
  C 22.40 57.36 33.05 74.55 49.54 85.27
  Q 50.06 85.61 50.57 85.25
  Z"
/>
<path fill="#009a92" d="
  M 71.73 29.48
  C 72.85 46.39 66.37 63.08 53.54 74.15
  Q 53.17 74.48 52.67 74.48
  Q 50.01 74.50 50.01 71.79
  Q 49.99 49.16 50.01 23.55
  A 2.29 2.28 -79.8 0 1 53.08 21.41
  L 70.46 27.79
  A 1.93 1.93 0.0 0 1 71.73 29.48
  Z"
/>
<path fill="#009a92" d="
  M 74.49 70.76
  Q 74.11 70.96 73.90 71.35
  Q 72.99 72.97 74.13 74.44
  L 79.34 81.16
  A 2.40 2.40 0.0 0 0 83.03 81.29
  L 94.06 68.86
  A 0.71 0.71 0.0 0 1 95.23 69.02
  C 98.83 76.55 95.99 85.41 88.75 89.35
  C 80.02 94.11 69.36 89.84 66.42 80.47
  C 61.75 65.57 79.08 54.00 91.32 63.93
  A 0.50 0.49 40.7 0 1 91.38 64.64
  L 81.87 75.56
  Q 81.42 76.07 80.99 75.53
  L 77.84 71.46
  Q 76.46 69.68 74.49 70.76
  Z"
/>
</svg>
