<?xml version="1.0" encoding="UTF-8" standalone="no"?>
<!DOCTYPE svg PUBLIC "-//W3C//DTD SVG 1.1//EN" "http://www.w3.org/Graphics/SVG/1.1/DTD/svg11.dtd">
<svg xmlns="http://www.w3.org/2000/svg" version="1.1" viewBox="0.00 0.00 70.00 70.00">
<rect fill="#009a92" x="-0.94" y="-6.07" transform="translate(35.82,8.92) rotate(-0.1)" width="1.88" height="12.14" rx="0.89"/>
<rect fill="#009a92" x="26.71" y="8.29" width="1.82" height="6.72" rx="0.87"/>
<rect fill="#009a92" x="-0.96" y="-3.30" transform="translate(44.04,11.67) rotate(-0.3)" width="1.92" height="6.60" rx="0.89"/>
<path fill="#009a92" d="
  M 49.63 33.03
  A 13.75 13.75 0.0 0 1 35.88 46.78
  A 13.75 13.75 0.0 0 1 22.13 33.03
  A 13.75 13.75 0.0 0 1 35.88 19.28
  A 13.75 13.75 0.0 0 1 49.63 33.03
  Z
  M 36.64 24.47
  L 36.49 23.47
  Q 36.40 22.88 35.80 22.91
  L 35.46 22.93
  Q 34.80 22.96 34.84 23.63
  Q 34.93 24.81 33.88 25.31
  C 30.23 27.03 30.56 32.77 34.67 33.72
  Q 35.40 33.89 36.13 33.98
  C 37.99 34.22 39.08 36.19 38.06 37.85
  C 36.62 40.20 33.58 39.08 33.24 36.49
  Q 33.17 35.98 32.75 35.69
  Q 32.28 35.36 31.68 35.76
  A 0.78 0.76 72.2 0 0 31.34 36.44
  Q 31.50 39.59 34.19 40.68
  A 0.76 0.75 -88.3 0 1 34.61 41.13
  Q 34.83 41.74 34.84 42.41
  Q 34.84 42.85 35.26 42.98
  Q 35.51 43.05 35.78 43.04
  Q 36.49 43.00 36.56 42.29
  L 36.65 41.51
  Q 36.70 41.02 37.16 40.84
  C 41.03 39.38 41.70 33.73 37.45 32.34
  Q 36.29 31.96 35.07 31.77
  Q 34.46 31.68 34.06 31.22
  C 30.87 27.59 38.09 24.14 38.60 29.88
  Q 38.65 30.38 39.15 30.33
  L 39.55 30.28
  A 0.86 0.86 0.0 0 0 40.32 29.41
  Q 40.29 26.17 37.14 25.08
  Q 36.71 24.92 36.64 24.47
  Z"
/>
<rect fill="#009a92" x="-3.36" y="-8.55" transform="translate(11.51,57.97) rotate(1.5)" width="6.72" height="17.10" rx="0.28"/>
<path fill="#009a92" d="
  M 49.19 59.23
  L 49.26 58.17
  Q 49.29 57.56 49.85 57.30
  L 58.40 53.30
  Q 59.62 52.73 60.83 53.31
  L 61.25 53.52
  Q 62.25 54.01 61.32 54.61
  Q 52.24 60.43 44.34 65.59
  C 41.32 67.56 37.42 67.52 33.84 66.44
  Q 28.40 64.80 22.31 63.20
  Q 19.89 62.56 17.23 64.05
  Q 16.65 64.38 16.67 63.72
  L 16.94 53.53
  Q 16.96 52.94 17.46 52.64
  C 20.80 50.65 25.08 50.27 28.62 51.95
  C 30.66 52.92 32.61 53.73 34.92 53.82
  Q 38.99 53.97 42.90 54.03
  A 3.91 3.88 71.8 0 1 45.95 55.59
  L 46.77 56.69
  Q 47.85 58.13 46.05 58.08
  L 35.52 57.77
  Q 34.63 57.74 34.42 58.61
  L 34.33 58.97
  A 0.52 0.51 7.9 0 0 34.81 59.60
  Q 41.89 60.02 48.36 60.02
  Q 49.15 60.01 49.19 59.23
  Z"
/>
</svg>
