<?xml version="1.0" encoding="UTF-8" standalone="no"?>
<!DOCTYPE svg PUBLIC "-//W3C//DTD SVG 1.1//EN" "http://www.w3.org/Graphics/SVG/1.1/DTD/svg11.dtd">
<svg xmlns="http://www.w3.org/2000/svg" version="1.1" viewBox="0.00 0.00 70.00 70.00">
<path fill="#009a92" d="
  M 52.66 0.00
  L 54.90 0.00
  Q 55.14 3.28 58.91 3.02
  Q 59.42 2.98 59.78 2.61
  L 60.37 2.01
  Q 60.75 1.63 61.23 1.89
  L 62.28 2.46
  Q 62.87 2.79 62.67 3.43
  Q 61.90 5.86 64.75 7.41
  A 1.38 1.33 50.2 0 0 65.76 7.52
  L 66.60 7.26
  A 0.77 0.77 0.0 0 1 67.50 7.63
  L 68.07 8.67
  Q 68.34 9.15 68.00 9.57
  Q 64.97 13.43 70.00 15.29
  L 70.00 17.41
  Q 64.97 19.19 68.01 23.15
  Q 68.36 23.61 68.05 24.09
  L 67.46 25.03
  Q 67.03 25.71 66.32 25.31
  Q 65.47 24.84 64.64 25.31
  Q 61.86 26.91 62.69 29.28
  A 0.73 0.73 0.0 0 1 62.37 30.14
  L 61.34 30.75
  A 0.87 0.85 52.4 0 1 60.28 30.60
  L 59.72 30.02
  Q 59.30 29.58 58.70 29.58
  Q 55.49 29.57 55.00 32.10
  Q 54.88 32.68 54.29 32.67
  L 53.01 32.66
  Q 52.43 32.65 52.32 32.08
  Q 51.86 29.49 48.53 29.61
  Q 47.93 29.63 47.52 30.08
  L 46.97 30.69
  Q 46.54 31.15 46.02 30.80
  L 44.89 30.04
  Q 44.45 29.75 44.61 29.24
  L 44.81 28.65
  Q 45.05 27.90 44.65 27.21
  Q 43.03 24.49 40.80 25.34
  Q 40.27 25.54 39.89 25.13
  Q 38.45 23.56 39.85 22.51
  Q 40.39 22.10 40.41 21.43
  Q 40.49 18.14 37.94 17.67
  Q 37.38 17.57 37.37 17.01
  L 37.33 15.57
  Q 37.32 14.96 37.93 14.93
  Q 38.44 14.90 38.90 14.72
  Q 39.31 14.55 39.57 14.16
  Q 41.39 11.43 39.39 9.67
  Q 38.92 9.26 39.23 8.71
  L 39.84 7.63
  A 0.74 0.73 24.2 0 1 40.72 7.30
  Q 43.12 8.13 44.67 5.41
  Q 45.18 4.51 44.65 3.57
  Q 44.32 2.99 44.87 2.63
  L 45.91 1.95
  Q 46.38 1.63 46.83 1.98
  Q 50.76 5.03 52.66 0.00
  Z
  M 62.99 16.34
  A 9.32 9.32 0.0 0 0 53.67 7.02
  A 9.32 9.32 0.0 0 0 44.35 16.34
  A 9.32 9.32 0.0 0 0 53.67 25.66
  A 9.32 9.32 0.0 0 0 62.99 16.34
  Z"
/>
<circle fill="#009a92" cx="15.21" cy="8.20" r="2.27"/>
<path fill="#009a92" d="
  M 34.65 7.46
  C 28.88 21.70 37.45 36.38 52.90 37.29
  Q 53.46 37.32 53.27 37.84
  Q 52.83 39.08 51.98 40.09
  Q 46.52 46.58 42.07 53.24
  Q 41.79 53.66 41.28 53.66
  L 28.53 53.67
  Q 28.01 53.67 27.76 53.22
  C 24.56 47.62 19.84 43.00 16.66 37.77
  C 13.54 32.64 13.22 25.63 15.56 20.17
  Q 20.68 8.24 34.28 6.96
  A 0.36 0.36 0.0 0 1 34.65 7.46
  Z"
/>
<circle fill="#009a92" cx="53.67" cy="16.34" r="2.28"/>
<circle fill="#009a92" cx="7.00" cy="28.00" r="2.28"/>
<circle fill="#009a92" cx="15.20" cy="47.79" r="2.28"/>
<circle fill="#009a92" cx="54.79" cy="47.79" r="2.28"/>
<path fill="#009a92" d="
  M 32.08 65.26
  Q 27.44 64.28 28.04 58.93
  Q 28.10 58.34 28.69 58.34
  L 41.46 58.34
  Q 41.88 58.34 41.94 58.75
  Q 42.68 64.22 37.82 65.29
  Q 37.34 65.40 37.19 65.87
  C 36.48 68.18 33.54 68.23 32.83 65.95
  A 1.00 0.99 87.5 0 0 32.08 65.26
  Z"
/>
</svg>
