<?xml version="1.0" encoding="UTF-8" standalone="no"?>
<!DOCTYPE svg PUBLIC "-//W3C//DTD SVG 1.1//EN" "http://www.w3.org/Graphics/SVG/1.1/DTD/svg11.dtd">
<svg xmlns="http://www.w3.org/2000/svg" version="1.1" viewBox="0.00 0.00 181.00 47.00">
<path fill="#ffffff" d="
  M 0.00 0.00
  L 181.00 0.00
  L 181.00 47.00
  L 0.00 47.00
  L 0.00 0.00
  Z
  M 174.2864 25.5537
  A 19.60 19.10 -1.1 0 0 154.3233 6.8335
  A 19.60 19.10 -1.1 0 0 135.0936 26.3063
  A 19.60 19.10 -1.1 0 0 155.0567 45.0265
  A 19.60 19.10 -1.1 0 0 174.2864 25.5537
  Z
  M 20.39 28.94
  Q 19.62 28.94 20.24 28.48
  L 31.16 20.37
  Q 32.00 19.75 30.96 19.75
  L 22.53 19.76
  Q 22.03 19.76 21.86 19.29
  Q 20.71 16.21 19.88 13.02
  Q 19.57 11.85 19.11 11.32
  Q 18.54 10.69 18.30 11.50
  L 15.97 19.23
  A 0.73 0.73 0.0 0 1 15.27 19.76
  L 6.69 19.75
  Q 5.76 19.75 6.50 20.30
  L 13.46 25.49
  Q 13.84 25.77 13.70 26.22
  L 11.14 34.36
  Q 10.79 35.45 11.72 34.77
  L 18.49 29.82
  Q 18.91 29.52 19.32 29.83
  L 26.08 34.98
  Q 26.77 35.50 26.59 34.65
  Q 26.15 32.50 25.27 30.55
  Q 25.07 30.12 25.04 29.65
  L 24.94 28.43
  A 0.55 0.54 73.8 0 0 24.15 27.99
  Q 22.35 28.94 20.39 28.94
  Z
  M 98.99 20.10
  A 1.23 1.23 0.0 0 0 97.76 18.87
  A 1.23 1.23 0.0 0 0 96.53 20.10
  A 1.23 1.23 0.0 0 0 97.76 21.33
  A 1.23 1.23 0.0 0 0 98.99 20.10
  Z
  M 39.19 21.24
  A 0.33 0.33 0.0 0 1 39.52 21.57
  L 39.52 33.10
  A 0.33 0.33 0.0 0 0 39.85 33.43
  L 41.58 33.44
  A 0.33 0.33 0.0 0 0 41.91 33.11
  L 41.90 21.58
  A 0.33 0.33 0.0 0 1 42.23 21.25
  L 45.67 21.24
  A 0.33 0.33 0.0 0 0 46.00 20.96
  L 46.14 19.97
  A 0.33 0.33 0.0 0 0 45.81 19.59
  L 35.34 19.58
  A 0.33 0.33 0.0 0 0 35.01 19.90
  L 34.97 20.90
  A 0.33 0.33 0.0 0 0 35.30 21.24
  L 39.19 21.24
  Z
  M 103.7687 20.0081
  A 0.44 0.44 0.0 0 0 103.3279 19.5689
  L 102.0279 19.5711
  A 0.44 0.44 0.0 0 0 101.5887 20.0119
  L 101.6113 33.0119
  A 0.44 0.44 0.0 0 0 102.0521 33.4511
  L 103.3521 33.4489
  A 0.44 0.44 0.0 0 0 103.7913 33.0081
  L 103.7687 20.0081
  Z
  M 77.99 25.15
  C 78.14 27.87 76.53 34.58 81.87 33.49
  Q 82.32 33.40 82.23 32.94
  L 82.16 32.63
  A 1.03 1.03 0.0 0 0 81.48 31.86
  L 80.53 31.54
  Q 79.99 31.36 79.98 30.79
  L 79.97 25.00
  A 0.48 0.47 3.3 0 1 80.50 24.53
  L 81.62 24.63
  Q 82.11 24.68 82.09 24.19
  L 82.07 23.53
  A 0.53 0.53 0.0 0 0 81.53 23.02
  L 80.52 23.03
  Q 79.99 23.04 79.98 22.52
  L 79.94 21.09
  Q 79.93 20.50 79.34 20.43
  L 78.84 20.37
  A 0.70 0.70 0.0 0 0 78.05 21.04
  L 78.00 22.46
  Q 77.98 23.03 77.42 23.11
  L 76.64 23.23
  Q 76.39 23.27 76.22 23.46
  Q 76.02 23.67 76.05 23.92
  Q 76.10 24.44 76.63 24.47
  L 77.34 24.51
  Q 77.95 24.54 77.99 25.15
  Z
  M 119.23 25.01
  Q 119.32 27.24 119.17 29.72
  C 119.01 32.30 120.04 34.02 123.05 33.50
  Q 123.46 33.43 123.49 33.02
  Q 123.51 32.75 123.43 32.49
  A 0.83 0.82 84.8 0 0 122.76 31.92
  Q 121.05 31.66 121.08 30.04
  Q 121.13 27.76 121.07 25.05
  Q 121.06 24.55 121.56 24.55
  L 123.05 24.55
  Q 123.58 24.54 123.52 24.02
  L 123.49 23.72
  Q 123.41 23.06 122.75 23.04
  L 121.70 23.01
  Q 120.89 22.99 121.03 22.19
  L 121.20 21.16
  A 0.56 0.55 5.8 0 0 120.66 20.51
  L 119.76 20.48
  Q 119.23 20.47 119.24 20.99
  L 119.24 22.47
  Q 119.24 22.97 118.74 23.06
  Q 118.02 23.18 117.54 23.60
  Q 116.97 24.08 117.67 24.35
  Q 118.19 24.55 118.72 24.54
  Q 119.20 24.53 119.23 25.01
  Z
  M 49.29 23.92
  Q 49.21 23.24 48.50 22.95
  A 0.91 0.91 0.0 0 0 47.25 23.79
  L 47.24 32.78
  Q 47.24 33.56 48.03 33.49
  L 49.05 33.39
  Q 49.46 33.35 49.44 32.95
  Q 49.31 30.04 49.40 27.10
  C 49.45 25.54 50.93 24.58 52.40 24.77
  A 0.55 0.54 -86.8 0 0 53.01 24.22
  L 52.99 23.68
  Q 52.98 23.06 52.37 23.00
  Q 50.74 22.81 49.69 24.05
  Q 49.35 24.45 49.29 23.92
  Z
  M 61.81 32.52
  Q 61.81 32.68 61.83 32.85
  Q 61.90 33.44 62.49 33.48
  L 63.00 33.51
  Q 63.81 33.56 63.81 32.75
  L 63.82 23.55
  Q 63.82 23.03 63.30 23.03
  L 62.27 23.03
  A 0.58 0.58 0.0 0 0 61.69 23.61
  L 61.73 28.70
  Q 61.75 31.04 59.50 31.69
  Q 59.08 31.81 58.69 31.70
  Q 56.98 31.20 56.98 29.42
  L 56.97 23.74
  Q 56.97 23.00 56.24 23.01
  L 55.71 23.01
  Q 54.97 23.01 55.00 23.76
  C 55.10 26.02 54.50 29.98 55.49 31.98
  C 56.46 33.95 59.82 34.19 61.23 32.33
  Q 61.80 31.58 61.81 32.52
  Z
  M 66.84 30.78
  Q 65.85 31.19 66.55 32.00
  C 68.47 34.22 73.08 34.43 74.61 31.64
  C 75.62 29.82 74.15 28.02 72.31 27.70
  Q 70.72 27.42 69.22 26.82
  A 1.01 1.00 -57.7 0 1 68.86 25.20
  Q 69.90 24.08 71.37 24.53
  Q 71.95 24.71 72.31 25.21
  Q 72.83 25.94 73.64 25.83
  A 0.99 0.99 0.0 0 0 74.00 23.99
  Q 70.01 21.68 67.20 24.16
  C 65.17 25.96 67.36 28.80 69.55 28.88
  Q 70.79 28.93 71.96 29.41
  A 1.20 1.20 0.0 0 1 72.22 31.47
  Q 70.11 33.08 68.34 30.95
  Q 67.82 30.34 67.09 30.67
  Q 66.97 30.73 66.84 30.78
  Z
  M 87.23 32.56
  C 89.44 34.67 93.18 33.57 93.98 30.66
  Q 94.75 27.83 93.90 25.75
  Q 92.11 21.37 87.29 23.78
  Q 86.94 23.96 86.70 23.65
  Q 86.09 22.86 85.05 23.02
  Q 84.50 23.11 84.50 23.68
  L 84.50 36.81
  Q 84.50 37.27 84.95 37.31
  Q 85.74 37.40 86.45 37.22
  Q 86.77 37.14 86.77 36.82
  L 86.73 32.77
  Q 86.73 32.07 87.23 32.56
  Z
  M 98.93 23.53
  A 0.50 0.50 0.0 0 0 98.43 23.03
  L 97.21 23.03
  A 0.50 0.50 0.0 0 0 96.71 23.53
  L 96.71 32.95
  A 0.50 0.50 0.0 0 0 97.21 33.45
  L 98.43 33.45
  A 0.50 0.50 0.0 0 0 98.93 32.95
  L 98.93 23.53
  Z
  M 116.0091 27.5802
  A 4.48 4.48 0.0 0 0 111.6399 22.9921
  L 110.7801 22.9711
  A 4.48 4.48 0.0 0 0 106.1920 27.3403
  L 106.1509 29.0198
  A 4.48 4.48 0.0 0 0 110.5201 33.6079
  L 111.3799 33.6289
  A 4.48 4.48 0.0 0 0 115.9680 29.2597
  L 116.0091 27.5802
  Z"
/>
<path fill="#e2e0df" d="
  M 174.2864 25.5537
  A 19.60 19.10 -1.1 0 1 155.0567 45.0265
  A 19.60 19.10 -1.1 0 1 135.0936 26.3063
  A 19.60 19.10 -1.1 0 1 154.3233 6.8335
  A 19.60 19.10 -1.1 0 1 174.2864 25.5537
  Z
  M 172.7871 27.5603
  A 17.93 17.67 4.8 0 0 156.3986 8.4520
  A 17.93 17.67 4.8 0 0 137.0529 24.5597
  A 17.93 17.67 4.8 0 0 153.4414 43.6680
  A 17.93 17.67 4.8 0 0 172.7871 27.5603
  Z"
/>
<path fill="#ffffff" d="
  M 172.7871 27.5603
  A 17.93 17.67 4.8 0 1 153.4414 43.6680
  A 17.93 17.67 4.8 0 1 137.0529 24.5597
  A 17.93 17.67 4.8 0 1 156.3986 8.4520
  A 17.93 17.67 4.8 0 1 172.7871 27.5603
  Z
  M 143.83 19.04
  Q 140.32 24.61 143.04 31.90
  Q 151.41 43.61 163.54 35.97
  Q 168.03 31.17 167.48 24.27
  Q 167.42 23.60 166.76 23.61
  L 155.51 23.63
  Q 154.93 23.63 154.89 24.21
  L 154.80 25.28
  Q 153.93 27.17 155.29 28.44
  L 161.44 28.50
  A 0.62 0.61 -70.4 0 1 161.91 29.50
  L 159.44 32.58
  Q 150.64 35.93 147.33 27.82
  Q 147.08 25.36 147.51 24.01
  Q 148.97 22.64 149.67 20.66
  Q 154.09 16.64 159.75 19.86
  Q 159.87 19.93 159.99 19.84
  Q 162.02 18.25 163.52 16.16
  Q 163.59 16.06 163.49 15.98
  Q 157.42 11.32 150.50 13.50
  Q 146.74 14.68 143.83 19.04
  Z"
/>
<path fill="#00b67b" d="
  M 20.39 28.94
  Q 22.35 28.94 24.15 27.99
  A 0.55 0.54 73.8 0 1 24.94 28.43
  L 25.04 29.65
  Q 25.07 30.12 25.27 30.55
  Q 26.15 32.50 26.59 34.65
  Q 26.77 35.50 26.08 34.98
  L 19.32 29.83
  Q 18.91 29.52 18.49 29.82
  L 11.72 34.77
  Q 10.79 35.45 11.14 34.36
  L 13.70 26.22
  Q 13.84 25.77 13.46 25.49
  L 6.50 20.30
  Q 5.76 19.75 6.69 19.75
  L 15.27 19.76
  A 0.73 0.73 0.0 0 0 15.97 19.23
  L 18.30 11.50
  Q 18.54 10.69 19.11 11.32
  Q 19.57 11.85 19.88 13.02
  Q 20.71 16.21 21.86 19.29
  Q 22.03 19.76 22.53 19.76
  L 30.96 19.75
  Q 32.00 19.75 31.16 20.37
  L 20.24 28.48
  Q 19.62 28.94 20.39 28.94
  Z"
/>
<path fill="#ea4335" d="
  M 149.67 20.66
  Q 148.39 21.17 147.41 22.87
  Q 145.65 22.65 145.32 21.90
  Q 145.20 21.63 144.93 21.49
  Q 143.69 20.86 143.83 19.04
  Q 146.74 14.68 150.50 13.50
  Q 157.42 11.32 163.49 15.98
  Q 163.59 16.06 163.52 16.16
  Q 162.02 18.25 159.99 19.84
  Q 159.87 19.93 159.75 19.86
  Q 154.09 16.64 149.67 20.66
  Z"
/>
<circle fill="#1c1917" cx="97.76" cy="20.10" r="1.23"/>
<path fill="#fbbc05" d="
  M 143.83 19.04
  Q 143.69 20.86 144.93 21.49
  Q 145.20 21.63 145.32 21.90
  Q 145.65 22.65 147.41 22.87
  Q 147.27 23.43 147.51 24.01
  Q 147.08 25.36 147.33 27.82
  Q 146.52 29.67 143.04 31.90
  Q 140.32 24.61 143.83 19.04
  Z"
/>
<path fill="#1c1917" d="
  M 39.19 21.24
  L 35.30 21.24
  A 0.33 0.33 0.0 0 1 34.97 20.90
  L 35.01 19.90
  A 0.33 0.33 0.0 0 1 35.34 19.58
  L 45.81 19.59
  A 0.33 0.33 0.0 0 1 46.14 19.97
  L 46.00 20.96
  A 0.33 0.33 0.0 0 1 45.67 21.24
  L 42.23 21.25
  A 0.33 0.33 0.0 0 0 41.90 21.58
  L 41.91 33.11
  A 0.33 0.33 0.0 0 1 41.58 33.44
  L 39.85 33.43
  A 0.33 0.33 0.0 0 1 39.52 33.10
  L 39.52 21.57
  A 0.33 0.33 0.0 0 0 39.19 21.24
  Z"
/>
<rect fill="#1c1917" x="-1.09" y="-6.94" transform="translate(102.69,26.51) rotate(-0.1)" width="2.18" height="13.88" rx="0.44"/>
<path fill="#1c1917" d="
  M 77.34 24.51
  L 76.63 24.47
  Q 76.10 24.44 76.05 23.92
  Q 76.02 23.67 76.22 23.46
  Q 76.39 23.27 76.64 23.23
  L 77.42 23.11
  Q 77.98 23.03 78.00 22.46
  L 78.05 21.04
  A 0.70 0.70 0.0 0 1 78.84 20.37
  L 79.34 20.43
  Q 79.93 20.50 79.94 21.09
  L 79.98 22.52
  Q 79.99 23.04 80.52 23.03
  L 81.53 23.02
  A 0.53 0.53 0.0 0 1 82.07 23.53
  L 82.09 24.19
  Q 82.11 24.68 81.62 24.63
  L 80.50 24.53
  A 0.48 0.47 3.3 0 0 79.97 25.00
  L 79.98 30.79
  Q 79.99 31.36 80.53 31.54
  L 81.48 31.86
  A 1.03 1.03 0.0 0 1 82.16 32.63
  L 82.23 32.94
  Q 82.32 33.40 81.87 33.49
  C 76.53 34.58 78.14 27.87 77.99 25.15
  Q 77.95 24.54 77.34 24.51
  Z"
/>
<path fill="#1c1917" d="
  M 118.72 24.54
  Q 118.19 24.55 117.67 24.35
  Q 116.97 24.08 117.54 23.60
  Q 118.02 23.18 118.74 23.06
  Q 119.24 22.97 119.24 22.47
  L 119.24 20.99
  Q 119.23 20.47 119.76 20.48
  L 120.66 20.51
  A 0.56 0.55 5.8 0 1 121.20 21.16
  L 121.03 22.19
  Q 120.89 22.99 121.70 23.01
  L 122.75 23.04
  Q 123.41 23.06 123.49 23.72
  L 123.52 24.02
  Q 123.58 24.54 123.05 24.55
  L 121.56 24.55
  Q 121.06 24.55 121.07 25.05
  Q 121.13 27.76 121.08 30.04
  Q 121.05 31.66 122.76 31.92
  A 0.83 0.82 84.8 0 1 123.43 32.49
  Q 123.51 32.75 123.49 33.02
  Q 123.46 33.43 123.05 33.50
  C 120.04 34.02 119.01 32.30 119.17 29.72
  Q 119.32 27.24 119.23 25.01
  Q 119.20 24.53 118.72 24.54
  Z"
/>
<path fill="#e2e0df" d="
  M 149.67 20.66
  Q 148.97 22.64 147.51 24.01
  Q 147.27 23.43 147.41 22.87
  Q 148.39 21.17 149.67 20.66
  Z"
/>
<path fill="#1c1917" d="
  M 49.69 24.05
  Q 50.74 22.81 52.37 23.00
  Q 52.98 23.06 52.99 23.68
  L 53.01 24.22
  A 0.55 0.54 -86.8 0 1 52.40 24.77
  C 50.93 24.58 49.45 25.54 49.40 27.10
  Q 49.31 30.04 49.44 32.95
  Q 49.46 33.35 49.05 33.39
  L 48.03 33.49
  Q 47.24 33.56 47.24 32.78
  L 47.25 23.79
  A 0.91 0.91 0.0 0 1 48.50 22.95
  Q 49.21 23.24 49.29 23.92
  Q 49.35 24.45 49.69 24.05
  Z"
/>
<path fill="#1c1917" d="
  M 61.23 32.33
  C 59.82 34.19 56.46 33.95 55.49 31.98
  C 54.50 29.98 55.10 26.02 55.00 23.76
  Q 54.97 23.01 55.71 23.01
  L 56.24 23.01
  Q 56.97 23.00 56.97 23.74
  L 56.98 29.42
  Q 56.98 31.20 58.69 31.70
  Q 59.08 31.81 59.50 31.69
  Q 61.75 31.04 61.73 28.70
  L 61.69 23.61
  A 0.58 0.58 0.0 0 1 62.27 23.03
  L 63.30 23.03
  Q 63.82 23.03 63.82 23.55
  L 63.81 32.75
  Q 63.81 33.56 63.00 33.51
  L 62.49 33.48
  Q 61.90 33.44 61.83 32.85
  Q 61.81 32.68 61.81 32.52
  Q 61.80 31.58 61.23 32.33
  Z"
/>
<path fill="#1c1917" d="
  M 68.34 30.95
  Q 70.11 33.08 72.22 31.47
  A 1.20 1.20 0.0 0 0 71.96 29.41
  Q 70.79 28.93 69.55 28.88
  C 67.36 28.80 65.17 25.96 67.20 24.16
  Q 70.01 21.68 74.00 23.99
  A 0.99 0.99 0.0 0 1 73.64 25.83
  Q 72.83 25.94 72.31 25.21
  Q 71.95 24.71 71.37 24.53
  Q 69.90 24.08 68.86 25.20
  A 1.01 1.00 -57.7 0 0 69.22 26.82
  Q 70.72 27.42 72.31 27.70
  C 74.15 28.02 75.62 29.82 74.61 31.64
  C 73.08 34.43 68.47 34.22 66.55 32.00
  Q 65.85 31.19 66.84 30.78
  Q 66.97 30.73 67.09 30.67
  Q 67.82 30.34 68.34 30.95
  Z"
/>
<path fill="#1c1917" d="
  M 86.73 32.77
  L 86.77 36.82
  Q 86.77 37.14 86.45 37.22
  Q 85.74 37.40 84.95 37.31
  Q 84.50 37.27 84.50 36.81
  L 84.50 23.68
  Q 84.50 23.11 85.05 23.02
  Q 86.09 22.86 86.70 23.65
  Q 86.94 23.96 87.29 23.78
  Q 92.11 21.37 93.90 25.75
  Q 94.75 27.83 93.98 30.66
  C 93.18 33.57 89.44 34.67 87.23 32.56
  Q 86.73 32.07 86.73 32.77
  Z
  M 89.3902 32.0799
  A 3.79 2.84 90.3 0 0 92.2500 28.3049
  A 3.79 2.84 90.3 0 0 89.4298 24.5001
  A 3.79 2.84 90.3 0 0 86.5700 28.2751
  A 3.79 2.84 90.3 0 0 89.3902 32.0799
  Z"
/>
<rect fill="#1c1917" x="96.71" y="23.03" width="2.22" height="10.42" rx="0.50"/>
<path fill="#1c1917" d="
  M 115.9680 29.2597
  A 4.48 4.48 0.0 0 1 111.3799 33.6289
  L 110.5201 33.6079
  A 4.48 4.48 0.0 0 1 106.1509 29.0198
  L 106.1920 27.3403
  A 4.48 4.48 0.0 0 1 110.7801 22.9711
  L 111.6399 22.9921
  A 4.48 4.48 0.0 0 1 116.0091 27.5802
  L 115.9680 29.2597
  Z
  M 111.0635 32.0799
  A 3.80 2.91 90.4 0 0 113.9999 28.3003
  A 3.80 2.91 90.4 0 0 111.1165 24.4801
  A 3.80 2.91 90.4 0 0 108.1801 28.2597
  A 3.80 2.91 90.4 0 0 111.0635 32.0799
  Z"
/>
<path fill="#4285f4" d="
  M 163.54 35.97
  L 159.44 32.58
  L 161.91 29.50
  A 0.62 0.61 -70.4 0 0 161.44 28.50
  L 155.29 28.44
  L 155.29 25.25
  Q 155.29 24.88 155.01 25.11
  L 154.80 25.28
  L 154.89 24.21
  Q 154.93 23.63 155.51 23.63
  L 166.76 23.61
  Q 167.42 23.60 167.48 24.27
  Q 168.03 31.17 163.54 35.97
  Z"
/>
<ellipse fill="#ffffff" cx="0.00" cy="0.00" transform="translate(89.41,28.29) rotate(90.3)" rx="3.79" ry="2.84"/>
<ellipse fill="#ffffff" cx="0.00" cy="0.00" transform="translate(111.09,28.28) rotate(90.4)" rx="3.80" ry="2.91"/>
<path fill="#e2e0df" d="
  M 155.29 28.44
  Q 153.93 27.17 154.80 25.28
  L 155.01 25.11
  Q 155.29 24.88 155.29 25.25
  L 155.29 28.44
  Z"
/>
<path fill="#34a854" d="
  M 147.33 27.82
  Q 150.64 35.93 159.44 32.58
  L 163.54 35.97
  Q 151.41 43.61 143.04 31.90
  Q 146.52 29.67 147.33 27.82
  Z"
/>
</svg>
