<?xml version="1.0" encoding="UTF-8" standalone="no"?>
<!DOCTYPE svg PUBLIC "-//W3C//DTD SVG 1.1//EN" "http://www.w3.org/Graphics/SVG/1.1/DTD/svg11.dtd">
<svg xmlns="http://www.w3.org/2000/svg" version="1.1" viewBox="0.00 0.00 3044.00 688.00">
<path fill="#00a39a" d="
  M 812.39 299.51
  Q 812.26 299.84 812.19 300.15
  Q 812.02 300.92 811.40 300.45
  Q 811.19 300.28 810.91 300.39
  A 0.49 0.49 0.0 0 1 810.36 300.26
  Q 806.60 295.82 801.95 293.07
  Q 797.52 290.45 793.52 287.50
  C 791.82 286.24 789.93 285.31 788.17 284.09
  C 776.93 276.28 765.90 268.39 754.63 260.71
  Q 729.99 243.92 706.21 227.33
  Q 692.18 217.55 675.95 206.57
  Q 672.66 204.34 669.91 202.28
  C 665.25 198.79 660.48 195.83 655.72 192.39
  C 653.43 190.73 650.99 189.50 648.74 187.71
  Q 646.32 185.79 643.64 183.98
  Q 635.22 178.31 627.54 172.61
  Q 624.36 170.25 621.29 168.31
  C 620.13 167.57 619.28 166.59 618.03 166.01
  Q 615.44 164.80 613.08 162.62
  Q 612.19 161.79 611.08 161.32
  Q 610.00 160.87 609.12 160.02
  Q 607.00 157.99 604.75 156.15
  Q 602.12 154.00 598.27 152.51
  A 1.86 1.78 83.2 0 1 597.42 151.81
  L 597.02 151.20
  Q 596.74 150.76 596.30 150.48
  Q 591.86 147.59 587.83 144.57
  Q 586.91 143.88 585.86 143.31
  Q 584.86 142.78 583.98 141.84
  Q 582.90 140.71 581.13 139.97
  Q 577.31 138.39 576.13 137.48
  Q 571.90 134.24 569.03 133.52
  Q 568.54 133.39 568.19 133.03
  Q 566.71 131.46 564.49 131.21
  Q 564.01 131.16 563.62 130.86
  Q 562.88 130.30 561.97 130.11
  Q 561.47 130.00 561.10 129.66
  Q 558.77 127.53 555.62 126.66
  C 554.94 126.47 554.62 126.13 554.13 125.67
  A 2.07 2.02 73.3 0 0 553.28 125.20
  Q 549.14 124.11 545.51 121.82
  C 544.33 121.08 543.20 121.08 541.96 120.48
  Q 540.52 119.78 539.19 119.41
  Q 536.22 118.56 533.23 117.51
  Q 530.51 116.56 527.93 115.99
  Q 526.56 115.69 525.39 114.96
  Q 524.44 114.37 523.40 114.31
  Q 521.45 114.19 519.56 113.59
  Q 511.54 111.04 502.70 110.01
  Q 496.72 109.32 490.51 108.90
  Q 490.44 108.90 490.38 108.86
  Q 490.21 108.76 490.16 108.55
  A 0.47 0.47 0.0 0 0 489.80 108.20
  C 488.01 107.81 486.26 107.37 484.43 107.37
  Q 481.74 107.37 479.15 107.29
  Q 477.51 107.24 475.86 106.96
  Q 474.31 106.70 472.74 107.03
  Q 470.98 107.39 469.18 107.23
  Q 466.66 107.00 464.15 108.23
  Q 464.12 108.24 464.12 108.28
  L 464.11 108.80
  A 0.41 0.41 0.0 0 0 464.69 109.18
  Q 464.98 109.04 465.27 109.20
  Q 465.76 109.47 465.21 109.49
  Q 464.22 109.54 464.02 110.09
  C 415.20 110.59 367.85 129.51 332.07 162.38
  Q 290.07 200.96 274.40 256.30
  Q 273.08 260.97 272.10 265.50
  Q 271.13 269.96 269.95 274.52
  Q 269.53 276.16 269.30 277.94
  Q 269.23 278.50 269.78 278.41
  L 271.95 278.05
  Q 273.35 281.58 277.80 283.88
  Q 280.92 285.48 284.04 288.43
  Q 284.98 289.33 286.49 289.38
  Q 286.98 289.39 287.35 289.72
  L 289.52 291.62
  A 1.19 1.14 -79.4 0 1 289.86 292.14
  Q 290.24 293.37 292.06 293.58
  L 268.03 301.94
  Q 267.05 302.28 267.02 303.31
  C 266.60 318.36 267.40 331.37 271.32 345.51
  C 278.49 371.34 290.70 395.69 305.34 418.46
  Q 328.85 455.05 357.27 489.95
  Q 407.36 551.45 466.37 605.32
  Q 465.74 605.19 465.04 605.31
  Q 464.34 605.43 464.69 606.04
  Q 465.17 606.91 466.20 607.37
  Q 470.50 609.27 473.88 611.90
  C 475.59 613.24 477.37 614.18 479.11 615.37
  Q 489.75 622.61 500.40 630.14
  Q 508.17 635.64 516.92 641.39
  Q 536.06 653.97 552.07 665.72
  Q 558.16 670.20 563.80 673.70
  Q 564.18 673.94 563.99 674.34
  Q 563.79 674.75 564.05 675.25
  A 343.80 343.01 -54.9 0 1 497.76 686.88
  A 343.40 343.32 -41.6 0 1 405.14 681.33
  A 343.63 343.55 -18.3 0 1 241.13 598.87
  A 343.49 343.49 0.0 0 1 138.59 427.73
  A 343.70 343.57 39.8 0 1 128.97 323.25
  A 343.50 343.48 -23.2 0 1 208.75 123.49
  A 343.48 343.31 4.1 0 1 290.58 52.57
  A 343.53 343.48 24.5 0 1 417.25 5.22
  A 343.53 343.51 53.9 0 1 627.42 38.12
  A 343.48 343.44 0.4 0 1 780.35 193.35
  A 343.56 343.55 -61.8 0 1 812.39 299.51
  Z"
/>
<path fill="#009a92" d="
  M 812.39 299.51
  A 188.11 101.15 84.6 0 1 814.84 326.00
  A 343.63 343.54 58.2 0 1 770.67 513.73
  A 343.55 343.53 -87.3 0 1 612.73 657.63
  A 344.25 343.25 -64.8 0 1 564.05 675.25
  Q 563.79 674.75 563.99 674.34
  Q 564.18 673.94 563.80 673.70
  Q 558.16 670.20 552.07 665.72
  Q 536.06 653.97 516.92 641.39
  Q 508.17 635.64 500.40 630.14
  Q 489.75 622.61 479.11 615.37
  C 477.37 614.18 475.59 613.24 473.88 611.90
  Q 470.50 609.27 466.20 607.37
  Q 465.17 606.91 464.69 606.04
  Q 464.34 605.43 465.04 605.31
  Q 465.74 605.19 466.37 605.32
  Q 510.82 565.36 550.32 520.58
  Q 581.32 485.44 608.11 446.99
  Q 616.14 435.46 623.59 423.56
  Q 625.24 420.92 626.94 418.54
  Q 628.82 417.35 629.56 414.67
  L 630.42 413.19
  Q 631.28 411.72 629.67 412.29
  L 604.79 420.99
  Q 601.26 421.22 598.23 423.16
  L 593.80 424.99
  Q 590.74 425.21 587.68 426.99
  L 581.47 429.43
  Q 578.87 429.41 576.29 431.13
  L 570.23 433.46
  Q 567.70 433.50 565.54 434.92
  L 558.60 437.45
  Q 552.71 437.85 549.50 441.47
  Q 540.43 453.39 534.84 460.08
  Q 502.36 498.93 467.14 535.19
  A 0.48 0.48 0.0 0 1 466.45 535.20
  Q 417.77 486.50 374.33 429.43
  Q 355.70 404.94 341.17 378.96
  Q 330.36 359.64 322.70 337.24
  Q 322.53 336.76 323.01 336.58
  L 370.55 319.32
  Q 372.62 319.40 373.73 318.34
  Q 378.25 316.39 382.92 314.69
  Q 406.67 306.08 432.60 296.93
  Q 434.85 296.13 437.95 295.17
  Q 440.64 294.33 443.28 293.33
  Q 452.49 289.85 470.32 284.07
  A 0.07 0.07 0.0 0 1 470.41 284.15
  L 425.77 462.93
  A 0.34 0.33 -3.0 0 0 426.21 463.32
  L 446.01 456.05
  Q 448.75 456.32 450.99 454.31
  L 646.03 384.18
  Q 646.54 384.00 646.79 383.52
  C 662.49 353.63 669.41 319.51 665.45 285.82
  C 664.35 276.42 661.51 267.17 659.32 258.04
  Q 657.16 249.03 654.30 241.28
  C 650.45 230.82 646.42 221.21 640.48 211.28
  Q 619.53 176.27 588.53 151.43
  Q 574.06 139.84 555.30 130.47
  Q 554.27 128.76 551.96 128.81
  Q 510.22 109.64 464.02 110.09
  Q 464.22 109.54 465.21 109.49
  Q 465.76 109.47 465.27 109.20
  Q 464.98 109.04 464.69 109.18
  A 0.41 0.41 0.0 0 1 464.11 108.80
  L 464.12 108.28
  Q 464.12 108.24 464.15 108.23
  Q 466.66 107.00 469.18 107.23
  Q 470.98 107.39 472.74 107.03
  Q 474.31 106.70 475.86 106.96
  Q 477.51 107.24 479.15 107.29
  Q 481.74 107.37 484.43 107.37
  C 486.26 107.37 488.01 107.81 489.80 108.20
  A 0.47 0.47 0.0 0 1 490.16 108.55
  Q 490.21 108.76 490.38 108.86
  Q 490.44 108.90 490.51 108.90
  Q 496.72 109.32 502.70 110.01
  Q 511.54 111.04 519.56 113.59
  Q 521.45 114.19 523.40 114.31
  Q 524.44 114.37 525.39 114.96
  Q 526.56 115.69 527.93 115.99
  Q 530.51 116.56 533.23 117.51
  Q 536.22 118.56 539.19 119.41
  Q 540.52 119.78 541.96 120.48
  C 543.20 121.08 544.33 121.08 545.51 121.82
  Q 549.14 124.11 553.28 125.20
  A 2.07 2.02 73.3 0 1 554.13 125.67
  C 554.62 126.13 554.94 126.47 555.62 126.66
  Q 558.77 127.53 561.10 129.66
  Q 561.47 130.00 561.97 130.11
  Q 562.88 130.30 563.62 130.86
  Q 564.01 131.16 564.49 131.21
  Q 566.71 131.46 568.19 133.03
  Q 568.54 133.39 569.03 133.52
  Q 571.90 134.24 576.13 137.48
  Q 577.31 138.39 581.13 139.97
  Q 582.90 140.71 583.98 141.84
  Q 584.86 142.78 585.86 143.31
  Q 586.91 143.88 587.83 144.57
  Q 591.86 147.59 596.30 150.48
  Q 596.74 150.76 597.02 151.20
  L 597.42 151.81
  A 1.86 1.78 83.2 0 0 598.27 152.51
  Q 602.12 154.00 604.75 156.15
  Q 607.00 157.99 609.12 160.02
  Q 610.00 160.87 611.08 161.32
  Q 612.19 161.79 613.08 162.62
  Q 615.44 164.80 618.03 166.01
  C 619.28 166.59 620.13 167.57 621.29 168.31
  Q 624.36 170.25 627.54 172.61
  Q 635.22 178.31 643.64 183.98
  Q 646.32 185.79 648.74 187.71
  C 650.99 189.50 653.43 190.73 655.72 192.39
  C 660.48 195.83 665.25 198.79 669.91 202.28
  Q 672.66 204.34 675.95 206.57
  Q 692.18 217.55 706.21 227.33
  Q 729.99 243.92 754.63 260.71
  C 765.90 268.39 776.93 276.28 788.17 284.09
  C 789.93 285.31 791.82 286.24 793.52 287.50
  Q 797.52 290.45 801.95 293.07
  Q 806.60 295.82 810.36 300.26
  A 0.49 0.49 0.0 0 0 810.91 300.39
  Q 811.19 300.28 811.40 300.45
  Q 812.02 300.92 812.19 300.15
  Q 812.26 299.84 812.39 299.51
  Z"
/>
<path fill="#ffffff" d="
  M 464.02 110.09
  Q 510.22 109.64 551.96 128.81
  Q 553.49 130.03 555.30 130.47
  Q 574.06 139.84 588.53 151.43
  Q 619.53 176.27 640.48 211.28
  C 646.42 221.21 650.45 230.82 654.30 241.28
  Q 657.16 249.03 659.32 258.04
  C 661.51 267.17 664.35 276.42 665.45 285.82
  C 669.41 319.51 662.49 353.63 646.79 383.52
  Q 646.54 384.00 646.03 384.18
  L 450.99 454.31
  Q 448.40 454.73 446.01 456.05
  L 426.21 463.32
  A 0.34 0.33 -3.0 0 1 425.77 462.93
  L 470.41 284.15
  A 0.07 0.07 0.0 0 0 470.32 284.07
  Q 452.49 289.85 443.28 293.33
  Q 440.64 294.33 437.95 295.17
  Q 434.85 296.13 432.60 296.93
  Q 406.67 306.08 382.92 314.69
  Q 378.25 316.39 373.73 318.34
  Q 372.10 318.26 370.55 319.32
  L 323.01 336.58
  Q 322.53 336.76 322.70 337.24
  Q 330.36 359.64 341.17 378.96
  Q 355.70 404.94 374.33 429.43
  Q 417.77 486.50 466.45 535.20
  A 0.48 0.48 0.0 0 0 467.14 535.19
  Q 502.36 498.93 534.84 460.08
  Q 540.43 453.39 549.50 441.47
  Q 551.10 440.10 553.05 439.54
  Q 555.56 438.83 555.88 438.69
  Q 557.20 438.14 558.60 437.45
  L 565.54 434.92
  Q 568.03 434.94 570.23 433.46
  L 576.29 431.13
  Q 579.16 431.05 581.47 429.43
  L 587.68 426.99
  L 593.80 424.99
  L 598.23 423.16
  Q 601.73 422.96 604.79 420.99
  L 629.67 412.29
  Q 631.28 411.72 630.42 413.19
  L 629.56 414.67
  Q 627.69 416.36 626.94 418.54
  Q 625.24 420.92 623.59 423.56
  Q 616.14 435.46 608.11 446.99
  Q 581.32 485.44 550.32 520.58
  Q 510.82 565.36 466.37 605.32
  Q 407.36 551.45 357.27 489.95
  Q 328.85 455.05 305.34 418.46
  C 290.70 395.69 278.49 371.34 271.32 345.51
  C 267.40 331.37 266.60 318.36 267.02 303.31
  Q 267.05 302.28 268.03 301.94
  L 292.06 293.58
  L 296.55 291.96
  Q 298.69 291.79 300.76 290.90
  Q 302.61 290.10 304.59 289.11
  L 307.74 288.00
  L 316.25 285.01
  L 355.02 270.94
  Q 357.23 270.72 359.22 269.49
  L 518.24 212.53
  Q 519.52 212.69 521.26 211.55
  L 542.48 203.96
  Q 543.03 203.76 542.92 204.33
  L 542.49 206.68
  L 540.73 213.73
  L 498.23 382.51
  A 0.33 0.32 87.6 0 0 498.65 382.90
  C 534.94 370.57 570.92 357.20 606.91 343.98
  C 608.20 343.50 608.60 343.07 609.08 341.88
  Q 616.78 323.02 615.87 302.79
  C 612.58 229.71 554.66 168.13 482.19 161.56
  Q 458.58 159.42 437.79 163.54
  Q 383.81 174.24 349.56 218.31
  Q 348.88 219.19 347.13 221.23
  Q 343.64 225.32 337.20 236.49
  Q 335.37 238.77 334.29 241.72
  L 328.48 254.24
  L 326.19 259.56
  L 311.70 264.78
  Q 307.96 265.11 305.00 267.08
  L 300.74 268.52
  Q 296.52 269.15 293.18 271.12
  L 288.76 272.57
  Q 285.56 272.92 283.02 274.35
  L 271.95 278.05
  L 269.78 278.41
  Q 269.23 278.50 269.30 277.94
  Q 269.53 276.16 269.95 274.52
  Q 271.13 269.96 272.10 265.50
  Q 273.08 260.97 274.40 256.30
  Q 290.07 200.96 332.07 162.38
  C 367.85 129.51 415.20 110.59 464.02 110.09
  Z"
/>
<path fill="#00a39a" d="
  M 551.96 128.81
  Q 554.27 128.76 555.30 130.47
  Q 553.49 130.03 551.96 128.81
  Z"
/>
<circle fill="#00a39a" cx="2361.90" cy="158.83" r="27.44"/>
<path fill="#009a92" d="
  M 540.73 213.73
  Q 542.53 210.32 542.49 206.68
  L 542.92 204.33
  Q 543.03 203.76 542.48 203.96
  L 521.26 211.55
  Q 519.61 211.03 518.24 212.53
  L 359.22 269.49
  Q 356.95 269.36 355.02 270.94
  L 316.25 285.01
  Q 311.84 285.57 307.74 288.00
  L 304.59 289.11
  Q 300.36 289.58 296.55 291.96
  L 292.06 293.58
  Q 290.24 293.37 289.86 292.14
  A 1.19 1.14 -79.4 0 0 289.52 291.62
  L 287.35 289.72
  Q 286.98 289.39 286.49 289.38
  Q 284.98 289.33 284.04 288.43
  Q 280.92 285.48 277.80 283.88
  Q 273.35 281.58 271.95 278.05
  L 283.02 274.35
  Q 285.78 274.53 288.76 272.57
  L 293.18 271.12
  Q 296.92 270.90 300.74 268.52
  L 305.00 267.08
  Q 308.41 266.76 311.70 264.78
  L 326.19 259.56
  Q 328.26 257.71 328.48 254.24
  L 334.29 241.72
  Q 336.42 239.31 337.20 236.49
  Q 343.64 225.32 347.13 221.23
  Q 348.88 219.19 349.56 218.31
  Q 383.81 174.24 437.79 163.54
  Q 458.58 159.42 482.19 161.56
  C 554.66 168.13 612.58 229.71 615.87 302.79
  Q 616.78 323.02 609.08 341.88
  C 608.60 343.07 608.20 343.50 606.91 343.98
  C 570.92 357.20 534.94 370.57 498.65 382.90
  A 0.33 0.32 87.6 0 1 498.23 382.51
  L 540.73 213.73
  Z"
/>
<path fill="#00a39a" d="
  M 1279.00 254.92
  A 0.78 0.78 0.0 0 0 1279.75 255.92
  Q 1312.19 255.94 1344.81 255.92
  Q 1345.38 255.92 1345.38 256.49
  L 1345.36 301.96
  Q 1345.36 302.53 1344.79 302.53
  L 1279.79 302.55
  A 0.59 0.58 -0.0 0 0 1279.20 303.13
  Q 1279.21 368.14 1279.18 434.91
  C 1279.18 448.01 1280.10 465.13 1290.64 474.23
  C 1304.07 485.83 1320.13 484.61 1335.61 478.24
  A 0.40 0.40 0.0 0 1 1336.15 478.48
  L 1351.72 522.54
  Q 1352.09 523.59 1351.03 523.91
  Q 1332.45 529.61 1314.01 530.45
  Q 1302.72 530.96 1294.00 529.94
  C 1264.55 526.51 1240.20 507.87 1231.94 479.23
  C 1228.88 468.65 1228.22 457.93 1228.23 446.66
  Q 1228.33 373.42 1228.29 303.13
  A 0.59 0.59 0.0 0 0 1227.70 302.54
  L 1181.33 302.55
  A 0.47 0.47 0.0 0 1 1180.86 302.08
  L 1180.82 256.43
  Q 1180.82 255.94 1181.32 255.94
  L 1227.42 255.93
  Q 1228.28 255.93 1228.28 255.08
  L 1228.31 174.44
  Q 1228.31 173.43 1229.31 173.44
  L 1278.46 173.48
  A 0.74 0.73 0.0 0 1 1279.20 174.21
  L 1279.22 254.33
  Q 1279.22 254.51 1279.13 254.66
  Q 1279.01 254.87 1279.00 254.92
  Z"
/>
<path fill="#00a39a" d="
  M 1959.29 255.36
  A 0.57 0.57 0.0 0 0 1959.86 255.93
  L 2025.22 255.93
  A 0.29 0.28 -90.0 0 1 2025.50 256.22
  L 2025.50 302.03
  A 0.53 0.52 -0.0 0 1 2024.97 302.55
  L 1959.72 302.52
  A 0.43 0.42 -89.3 0 0 1959.30 302.94
  Q 1959.23 370.34 1959.33 436.91
  C 1959.34 446.12 1960.27 455.76 1963.77 464.42
  C 1967.28 473.12 1976.29 479.78 1985.32 482.03
  C 1995.04 484.46 2006.66 482.18 2015.70 478.19
  A 0.43 0.42 -21.2 0 1 2016.27 478.44
  L 2031.99 522.79
  Q 2032.22 523.43 2031.57 523.66
  C 2018.19 528.38 2003.70 530.35 1988.53 530.63
  Q 1975.06 530.87 1963.85 528.10
  C 1940.66 522.35 1921.78 506.43 1913.63 483.94
  C 1909.27 471.92 1908.50 460.91 1908.49 446.59
  Q 1908.44 375.02 1908.48 303.29
  Q 1908.48 302.54 1907.73 302.54
  L 1861.74 302.52
  Q 1861.21 302.52 1861.21 301.99
  L 1861.21 256.48
  Q 1861.21 255.93 1861.76 255.93
  L 1907.76 255.93
  A 0.70 0.69 -0.0 0 0 1908.46 255.24
  L 1908.48 173.99
  A 0.53 0.53 0.0 0 1 1909.01 173.46
  L 1958.73 173.43
  Q 1959.29 173.43 1959.29 173.98
  L 1959.29 255.36
  Z"
/>
<path fill="#00a39a" d="
  M 542.49 206.68
  Q 542.53 210.32 540.73 213.73
  L 542.49 206.68
  Z"
/>
<path fill="#00a39a" d="
  M 521.26 211.55
  Q 519.52 212.69 518.24 212.53
  Q 519.61 211.03 521.26 211.55
  Z"
/>
<path fill="#00a39a" d="
  M 337.20 236.49
  Q 336.42 239.31 334.29 241.72
  Q 335.37 238.77 337.20 236.49
  Z"
/>
<path fill="#00a39a" d="
  M 1562.80 366.77
  Q 1563.44 367.12 1563.46 366.39
  Q 1563.56 360.60 1563.42 354.08
  C 1562.74 322.29 1535.22 298.13 1505.84 293.51
  Q 1492.60 291.43 1478.35 293.82
  C 1456.88 297.43 1439.35 309.64 1426.78 327.85
  A 0.77 0.76 -56.6 0 1 1425.74 328.07
  L 1381.80 300.40
  Q 1381.49 300.21 1381.70 299.91
  Q 1405.49 265.94 1443.76 253.90
  Q 1461.80 248.22 1482.54 247.35
  C 1507.17 246.33 1533.21 249.49 1554.87 260.33
  Q 1595.61 280.71 1607.71 323.95
  C 1611.04 335.85 1612.11 348.19 1612.10 360.75
  Q 1612.04 443.00 1612.07 525.90
  Q 1612.07 526.24 1611.73 526.24
  L 1563.99 526.25
  Q 1563.48 526.25 1563.48 525.74
  L 1563.42 489.46
  A 1.04 1.03 3.8 0 0 1562.52 488.44
  Q 1561.74 488.34 1561.29 488.99
  C 1540.93 518.85 1512.39 535.62 1475.58 535.02
  Q 1456.41 534.71 1440.34 529.67
  C 1418.70 522.89 1398.82 508.85 1386.27 489.73
  Q 1373.42 470.12 1372.76 444.99
  C 1372.14 420.90 1379.60 398.86 1396.89 382.17
  C 1416.78 362.98 1443.53 353.82 1471.25 351.54
  C 1502.36 348.98 1535.78 352.18 1562.80 366.77
  Z
  M 1525.39 476.32
  C 1547.67 461.52 1562.90 438.97 1563.47 411.58
  A 2.22 2.22 0.0 0 0 1562.60 409.78
  C 1551.35 401.21 1537.51 396.13 1523.46 393.83
  C 1509.69 391.56 1495.47 390.97 1481.51 392.84
  C 1457.67 396.03 1428.63 411.46 1425.63 438.25
  Q 1423.29 459.17 1438.57 473.32
  C 1462.45 495.44 1499.03 493.84 1525.39 476.32
  Z"
/>
<path fill="#00a39a" d="
  M 2556.96 406.61
  C 2541.80 403.06 2526.96 399.62 2512.02 395.89
  Q 2498.29 392.46 2484.77 386.95
  C 2462.38 377.83 2440.54 359.50 2437.60 333.89
  Q 2435.15 312.49 2443.38 295.93
  C 2452.37 277.84 2469.24 264.81 2487.91 257.31
  Q 2525.26 242.29 2565.83 249.52
  C 2600.29 255.65 2630.65 276.35 2643.79 309.66
  A 0.53 0.52 -22.4 0 1 2643.50 310.34
  L 2613.30 322.75
  A 0.42 0.42 0.0 0 1 2612.77 322.54
  C 2601.61 299.38 2583.60 285.31 2558.26 280.51
  C 2538.61 276.78 2516.73 278.90 2498.83 287.90
  C 2486.94 293.89 2475.91 304.45 2473.67 317.46
  Q 2470.46 336.07 2484.01 347.59
  C 2487.29 350.38 2492.57 353.31 2496.94 355.32
  Q 2511.33 361.92 2527.13 365.82
  Q 2550.74 371.65 2574.34 377.72
  Q 2586.70 380.89 2601.06 387.35
  C 2629.72 400.24 2650.71 423.47 2648.78 456.43
  C 2646.46 495.87 2614.54 521.32 2578.54 530.71
  Q 2559.01 535.80 2536.28 534.85
  C 2487.68 532.80 2446.99 503.20 2430.00 457.77
  A 0.67 0.67 0.0 0 1 2430.37 456.92
  L 2460.96 444.05
  A 0.46 0.45 67.1 0 1 2461.55 444.30
  Q 2463.19 448.24 2464.86 451.91
  Q 2478.71 482.23 2508.10 495.75
  Q 2521.32 501.83 2534.62 502.95
  Q 2557.07 504.84 2576.34 498.46
  C 2600.57 490.44 2619.73 467.92 2610.55 440.97
  C 2605.80 427.01 2590.41 417.89 2576.84 412.92
  Q 2564.30 408.33 2556.96 406.61
  Z"
/>
<path fill="#00a39a" d="
  M 2881.03 374.44
  Q 2881.33 374.35 2881.32 374.04
  Q 2881.32 365.33 2881.23 356.94
  C 2880.85 322.63 2859.80 292.90 2826.73 282.90
  Q 2802.16 275.47 2776.43 281.35
  C 2754.10 286.46 2735.86 300.63 2723.49 320.30
  A 0.50 0.49 -57.4 0 1 2722.81 320.46
  L 2692.76 301.69
  A 0.72 0.71 -57.7 0 1 2692.54 300.70
  C 2712.19 270.65 2744.77 252.35 2780.29 248.19
  Q 2797.40 246.19 2815.96 248.12
  C 2869.10 253.62 2909.67 289.40 2915.04 343.78
  Q 2915.64 349.77 2915.64 363.74
  Q 2915.67 439.91 2915.65 525.63
  A 0.62 0.62 0.0 0 1 2915.03 526.25
  L 2881.77 526.24
  A 0.53 0.52 0.0 0 1 2881.24 525.72
  Q 2881.29 501.48 2881.22 479.52
  Q 2881.22 479.05 2881.02 478.61
  A 1.04 1.04 0.0 0 0 2879.18 478.51
  Q 2869.47 494.80 2855.44 507.24
  C 2838.58 522.20 2820.31 531.54 2798.53 534.11
  C 2769.50 537.53 2740.57 531.27 2716.76 514.38
  C 2696.29 499.86 2683.42 477.30 2681.55 452.52
  Q 2678.19 407.96 2711.46 380.11
  C 2739.88 356.32 2781.95 351.36 2817.81 355.21
  Q 2850.26 358.69 2880.72 374.42
  Q 2880.86 374.49 2881.03 374.44
  Z
  M 2753.10 496.17
  C 2803.80 518.85 2858.59 485.41 2876.14 436.19
  Q 2881.20 422.03 2881.28 407.12
  A 1.97 1.96 15.1 0 0 2880.30 405.42
  C 2866.82 397.62 2851.25 390.71 2836.11 387.30
  Q 2807.32 380.81 2779.47 385.22
  C 2751.77 389.60 2722.44 406.30 2717.89 436.74
  C 2713.79 464.19 2728.95 485.36 2753.10 496.17
  Z"
/>
<path fill="#00a39a" d="
  M 1720.26 299.56
  C 1733.26 270.07 1758.14 254.59 1789.07 250.00
  C 1800.64 248.29 1811.79 247.62 1822.94 249.33
  Q 1823.75 249.45 1823.75 250.27
  L 1823.75 301.76
  A 0.59 0.59 0.0 0 1 1823.11 302.35
  C 1813.66 301.67 1803.68 299.87 1794.44 300.44
  C 1752.29 303.03 1720.18 333.80 1720.15 376.84
  Q 1720.09 451.26 1720.14 525.63
  Q 1720.14 526.25 1719.52 526.25
  L 1670.00 526.25
  Q 1669.25 526.25 1669.25 525.50
  L 1669.25 256.47
  A 0.54 0.53 -90.0 0 1 1669.78 255.93
  L 1717.30 255.93
  Q 1717.93 255.93 1717.93 256.55
  L 1717.93 299.47
  Q 1717.93 300.11 1718.57 300.21
  Q 1719.04 300.28 1719.52 300.17
  Q 1720.04 300.06 1720.26 299.56
  Z"
/>
<path fill="#00a39a" d="
  M 328.48 254.24
  Q 328.26 257.71 326.19 259.56
  L 328.48 254.24
  Z"
/>
<path fill="#00a39a" d="
  M 1084.77 303.22
  Q 1085.37 302.52 1084.44 302.52
  L 937.27 302.54
  A 1.02 1.02 0.0 0 1 936.25 301.52
  L 936.25 256.47
  A 0.54 0.53 -90.0 0 1 936.78 255.93
  L 1147.46 255.93
  Q 1148.06 255.93 1148.05 256.52
  Q 1148.00 276.42 1148.05 297.60
  C 1148.06 300.59 1146.86 301.67 1145.05 303.79
  Q 1069.96 391.46 994.85 479.23
  A 0.32 0.31 20.4 0 0 995.09 479.75
  L 1149.75 479.76
  Q 1150.25 479.76 1150.25 480.25
  L 1150.25 526.00
  A 0.25 0.25 0.0 0 1 1150.00 526.25
  L 932.27 526.25
  Q 931.78 526.25 931.78 525.77
  L 931.78 482.52
  Q 931.78 481.92 932.18 481.47
  L 1084.77 303.22
  Z"
/>
<path fill="#00a39a" d="
  M 2175.91 486.29
  A 0.51 0.51 0.0 0 0 2176.48 485.98
  L 2268.75 256.47
  Q 2268.97 255.93 2269.55 255.93
  L 2305.66 255.93
  Q 2306.16 255.93 2305.97 256.40
  L 2194.90 525.77
  Q 2194.70 526.25 2194.18 526.25
  L 2156.52 526.25
  Q 2155.98 526.25 2155.77 525.75
  L 2045.84 256.49
  Q 2045.62 255.94 2046.22 255.94
  L 2082.75 255.93
  Q 2083.38 255.93 2083.61 256.51
  Q 2129.42 371.20 2175.20 485.72
  Q 2175.39 486.20 2175.91 486.29
  Z"
/>
<rect fill="#00a39a" x="2344.38" y="255.93" width="35.60" height="270.32" rx="0.58"/>
<path fill="#00a39a" d="
  M 311.70 264.78
  Q 308.41 266.76 305.00 267.08
  Q 307.96 265.11 311.70 264.78
  Z"
/>
<path fill="#00a39a" d="
  M 300.74 268.52
  Q 296.92 270.90 293.18 271.12
  Q 296.52 269.15 300.74 268.52
  Z"
/>
<path fill="#00a39a" d="
  M 359.22 269.49
  Q 357.23 270.72 355.02 270.94
  Q 356.95 269.36 359.22 269.49
  Z"
/>
<path fill="#00a39a" d="
  M 288.76 272.57
  Q 285.78 274.53 283.02 274.35
  Q 285.56 272.92 288.76 272.57
  Z"
/>
<path fill="#00a39a" d="
  M 316.25 285.01
  L 307.74 288.00
  Q 311.84 285.57 316.25 285.01
  Z"
/>
<path fill="#00a39a" d="
  M 304.59 289.11
  Q 302.61 290.10 300.76 290.90
  Q 298.69 291.79 296.55 291.96
  Q 300.36 289.58 304.59 289.11
  Z"
/>
<path fill="#00a39a" d="
  M 373.73 318.34
  Q 372.62 319.40 370.55 319.32
  Q 372.10 318.26 373.73 318.34
  Z"
/>
<path fill="#00a39a" d="
  M 629.56 414.67
  Q 628.82 417.35 626.94 418.54
  Q 627.69 416.36 629.56 414.67
  Z"
/>
<path fill="#00a39a" d="
  M 604.79 420.99
  Q 601.73 422.96 598.23 423.16
  Q 601.26 421.22 604.79 420.99
  Z"
/>
<path fill="#00a39a" d="
  M 593.80 424.99
  L 587.68 426.99
  Q 590.74 425.21 593.80 424.99
  Z"
/>
<path fill="#00a39a" d="
  M 581.47 429.43
  Q 579.16 431.05 576.29 431.13
  Q 578.87 429.41 581.47 429.43
  Z"
/>
<path fill="#00a39a" d="
  M 570.23 433.46
  Q 568.03 434.94 565.54 434.92
  Q 567.70 433.50 570.23 433.46
  Z"
/>
<path fill="#00a39a" d="
  M 558.60 437.45
  Q 557.20 438.14 555.88 438.69
  Q 555.56 438.83 553.05 439.54
  Q 551.10 440.10 549.50 441.47
  Q 552.71 437.85 558.60 437.45
  Z"
/>
<path fill="#00a39a" d="
  M 450.99 454.31
  Q 448.75 456.32 446.01 456.05
  Q 448.40 454.73 450.99 454.31
  Z"
/>
</svg>
