<?xml version="1.0" encoding="UTF-8" standalone="no"?>
<!DOCTYPE svg PUBLIC "-//W3C//DTD SVG 1.1//EN" "http://www.w3.org/Graphics/SVG/1.1/DTD/svg11.dtd">
<svg xmlns="http://www.w3.org/2000/svg" version="1.1" viewBox="0.00 0.00 298.00 142.00">
<path fill="#ffffff" d="
  M 0.00 0.00
  L 298.00 0.00
  L 298.00 54.12
  Q 286.40 53.91 274.76 54.01
  C 274.05 54.02 273.50 54.33 272.79 54.42
  L 245.24 54.05
  Q 244.75 54.05 244.75 54.54
  L 244.75 108.71
  Q 244.75 108.99 245.02 108.99
  L 272.51 108.94
  L 298.00 109.01
  L 298.00 142.00
  L 0.00 142.00
  L 0.00 108.97
  L 54.72 108.94
  Q 55.36 108.94 55.36 108.30
  L 55.36 54.56
  Q 55.36 54.03 54.84 54.03
  L 0.00 54.01
  L 0.00 0.00
  Z
  M 30.09 29.36
  Q 29.95 27.54 28.93 25.72
  L 41.04 17.10
  Q 42.03 16.39 40.81 16.39
  L 26.44 16.37
  A 0.68 0.67 -8.5 0 1 25.81 15.91
  L 21.15 1.76
  Q 20.96 1.17 20.77 1.76
  L 16.10 15.99
  A 0.56 0.55 8.5 0 1 15.57 16.38
  L 1.20 16.37
  Q -0.05 16.36 0.97 17.10
  L 12.39 25.30
  A 1.10 1.09 27.1 0 1 12.79 26.53
  L 8.36 39.92
  Q 8.02 40.93 8.88 40.30
  L 20.17 32.10
  Q 20.98 31.51 21.80 32.10
  L 33.03 40.27
  Q 33.92 40.92 33.57 39.87
  L 30.09 29.36
  Z
  M 52.58 19.62
  A 0.42 0.42 0.0 0 1 53.00 20.04
  L 53.00 37.76
  A 0.42 0.42 0.0 0 0 53.44 38.18
  L 56.34 38.03
  A 0.42 0.42 0.0 0 0 56.74 37.61
  L 56.76 20.07
  A 0.42 0.42 0.0 0 1 57.18 19.65
  L 63.30 19.60
  A 0.42 0.42 0.0 0 0 63.72 19.19
  L 63.77 16.81
  A 0.42 0.42 0.0 0 0 63.35 16.38
  L 46.41 16.37
  A 0.42 0.42 0.0 0 0 45.99 16.79
  L 46.00 19.22
  A 0.42 0.42 0.0 0 0 46.42 19.64
  L 52.58 19.62
  Z
  M 139.4954 16.6739
  A 0.31 0.31 0.0 0 0 139.1843 16.3650
  L 136.3244 16.3750
  A 0.31 0.31 0.0 0 0 136.0154 16.6861
  L 136.0246 19.3061
  A 0.31 0.31 0.0 0 0 136.3357 19.6150
  L 139.1956 19.6050
  A 0.31 0.31 0.0 0 0 139.5046 19.2939
  L 139.4954 16.6739
  Z
  M 146.13 16.66
  A 0.26 0.26 0.0 0 0 145.87 16.40
  L 142.89 16.40
  A 0.26 0.26 0.0 0 0 142.63 16.66
  L 142.63 37.88
  A 0.26 0.26 0.0 0 0 142.89 38.14
  L 145.87 38.14
  A 0.26 0.26 0.0 0 0 146.13 37.88
  L 146.13 16.66
  Z
  M 112.63 25.00
  L 114.58 25.00
  Q 115.15 25.00 115.16 24.42
  L 115.17 22.99
  A 0.64 0.64 0.0 0 0 114.49 22.34
  L 112.61 22.44
  Q 112.00 22.47 112.00 21.86
  L 112.00 18.26
  Q 112.00 17.53 111.26 17.56
  L 109.04 17.65
  Q 108.51 17.68 108.51 18.21
  L 108.50 21.74
  A 0.68 0.67 -86.5 0 1 107.76 22.41
  L 106.66 22.30
  Q 106.06 22.24 105.98 22.84
  L 105.79 24.21
  A 0.68 0.68 0.0 0 0 106.46 24.99
  L 108.00 25.00
  Q 108.51 25.01 108.51 25.51
  Q 108.53 29.70 108.47 34.16
  Q 108.45 36.31 109.63 37.70
  Q 109.99 38.11 110.52 38.15
  L 114.20 38.42
  Q 115.44 38.50 115.24 37.28
  L 115.04 36.04
  Q 114.91 35.25 114.15 35.50
  Q 113.23 35.80 112.42 35.25
  Q 112.00 34.96 112.00 34.45
  L 112.00 25.63
  A 0.63 0.63 0.0 0 1 112.63 25.00
  Z
  M 168.00 22.29
  L 166.58 22.46
  Q 165.95 22.53 165.89 23.16
  L 165.79 24.20
  A 0.70 0.69 -86.4 0 0 166.45 24.96
  L 167.93 25.03
  Q 168.55 25.05 168.53 25.67
  Q 168.42 30.47 168.59 35.19
  C 168.71 38.62 171.79 38.47 174.25 38.32
  Q 175.00 38.28 175.00 37.52
  L 175.00 36.02
  Q 174.99 35.30 174.30 35.50
  Q 173.20 35.80 172.37 35.18
  Q 172.00 34.90 172.00 34.43
  L 171.97 25.82
  Q 171.97 25.11 172.68 25.06
  L 174.32 24.94
  Q 175.10 24.89 175.06 24.11
  L 175.02 23.22
  Q 174.98 22.46 174.22 22.44
  L 172.51 22.39
  A 0.51 0.51 0.0 0 1 172.01 21.89
  L 171.92 18.50
  Q 171.89 17.38 170.77 17.49
  L 169.61 17.60
  Q 168.56 17.71 168.55 18.75
  L 168.50 21.75
  Q 168.49 22.24 168.00 22.29
  Z
  M 66.19 24.50
  L 66.36 22.84
  A 0.49 0.49 0.0 0 0 65.76 22.31
  Q 64.76 22.54 63.81 22.35
  Q 63.00 22.19 63.00 23.01
  L 63.00 37.69
  Q 63.00 38.14 63.45 38.14
  L 65.97 38.12
  A 0.53 0.53 0.0 0 0 66.49 37.60
  C 66.54 34.57 65.21 24.62 70.99 25.39
  Q 72.25 25.56 72.25 24.29
  L 72.26 22.91
  Q 72.26 21.83 71.18 21.94
  Q 68.46 22.23 66.65 24.68
  Q 66.09 25.43 66.19 24.50
  Z
  M 100.13 25.70
  Q 100.99 27.44 103.83 26.87
  Q 104.32 26.78 104.20 26.29
  Q 103.56 23.62 101.24 22.69
  C 98.11 21.43 91.35 21.69 91.22 26.43
  Q 91.12 29.97 95.57 30.93
  Q 98.03 31.46 100.26 32.34
  A 1.63 1.63 0.0 0 1 100.30 35.36
  Q 97.78 36.42 95.17 34.96
  A 1.21 1.19 9.0 0 1 94.57 34.15
  L 94.47 33.63
  Q 94.37 33.15 93.88 33.14
  L 91.50 33.06
  A 0.51 0.51 0.0 0 0 90.97 33.61
  C 91.39 39.02 98.44 39.39 102.16 37.63
  Q 104.34 36.60 104.77 34.16
  C 105.56 29.68 99.61 28.66 96.38 28.12
  A 1.83 1.81 -9.1 0 1 95.08 27.19
  Q 94.26 25.65 95.58 25.13
  Q 97.42 24.40 99.55 25.18
  Q 99.94 25.33 100.13 25.70
  Z
  M 120.78 24.25
  L 120.97 23.07
  Q 121.10 22.30 120.32 22.32
  L 118.23 22.40
  Q 117.64 22.42 117.63 23.02
  L 117.62 43.55
  A 0.45 0.44 -90.0 0 0 118.06 44.00
  L 120.69 44.00
  A 0.44 0.44 0.0 0 0 121.13 43.56
  L 121.12 37.15
  Q 121.12 36.22 121.79 36.87
  Q 124.64 39.63 129.02 37.95
  C 133.26 36.32 133.91 30.44 132.59 26.63
  C 131.21 22.69 127.12 21.34 123.47 22.44
  A 1.93 1.83 11.5 0 0 122.67 22.94
  L 121.24 24.47
  Q 120.63 25.13 120.78 24.25
  Z
  M 164.5474 28.9945
  A 7.11 7.11 0.0 0 0 157.1816 22.1498
  L 155.7826 22.2011
  A 7.11 7.11 0.0 0 0 148.9379 29.5669
  L 149.0126 31.6055
  A 7.11 7.11 0.0 0 0 156.3784 38.4502
  L 157.7774 38.3989
  A 7.11 7.11 0.0 0 0 164.6221 31.0331
  L 164.5474 28.9945
  Z
  M 84.88 36.80
  Q 84.89 37.26 84.71 37.69
  A 0.32 0.32 0.0 0 0 85.01 38.14
  L 87.75 38.12
  A 0.64 0.64 0.0 0 0 88.38 37.48
  L 88.38 22.75
  Q 88.38 22.38 88.00 22.38
  L 85.49 22.40
  A 0.61 0.60 0.0 0 0 84.88 23.00
  L 84.87 31.80
  Q 84.87 35.04 81.71 35.74
  Q 81.00 35.90 80.22 35.78
  Q 77.90 35.42 77.89 33.07
  L 77.87 22.64
  Q 77.87 22.31 77.54 22.32
  L 74.74 22.40
  Q 74.43 22.41 74.42 22.72
  Q 74.15 30.90 74.58 34.08
  Q 74.96 36.81 77.04 37.82
  Q 81.07 39.77 84.23 36.54
  Q 84.87 35.89 84.88 36.80
  Z
  M 139.50 22.69
  A 0.31 0.31 0.0 0 0 139.19 22.38
  L 136.31 22.38
  A 0.31 0.31 0.0 0 0 136.00 22.69
  L 136.00 37.81
  A 0.31 0.31 0.0 0 0 136.31 38.12
  L 139.19 38.12
  A 0.31 0.31 0.0 0 0 139.50 37.81
  L 139.50 22.69
  Z
  M 116.52 54.32
  A 0.32 0.32 0.0 0 0 116.20 54.00
  L 61.34 54.00
  A 0.32 0.32 0.0 0 0 61.02 54.32
  L 61.02 108.68
  A 0.32 0.32 0.0 0 0 61.34 109.00
  L 116.20 109.00
  A 0.32 0.32 0.0 0 0 116.52 108.68
  L 116.52 54.32
  Z
  M 177.76 54.34
  A 0.34 0.34 0.0 0 0 177.42 54.00
  L 122.54 54.00
  A 0.34 0.34 0.0 0 0 122.20 54.34
  L 122.20 108.66
  A 0.34 0.34 0.0 0 0 122.54 109.00
  L 177.42 109.00
  A 0.34 0.34 0.0 0 0 177.76 108.66
  L 177.76 54.34
  Z
  M 238.97 54.37
  A 0.37 0.37 0.0 0 0 238.60 54.00
  L 183.74 54.00
  A 0.37 0.37 0.0 0 0 183.37 54.37
  L 183.37 108.63
  A 0.37 0.37 0.0 0 0 183.74 109.00
  L 238.60 109.00
  A 0.37 0.37 0.0 0 0 238.97 108.63
  L 238.97 54.37
  Z
  M 6.45 124.81
  A 0.30 0.30 0.0 0 1 6.74 124.51
  L 10.83 124.41
  A 0.30 0.30 0.0 0 0 11.09 123.99
  L 10.76 123.21
  A 0.30 0.30 0.0 0 0 10.48 123.03
  L 1.27 123.06
  A 0.30 0.30 0.0 0 0 0.98 123.28
  L 0.79 124.05
  A 0.30 0.30 0.0 0 0 1.07 124.42
  L 4.98 124.48
  A 0.30 0.30 0.0 0 1 5.27 124.78
  L 5.08 135.48
  A 0.30 0.30 0.0 0 0 5.35 135.79
  L 6.16 135.87
  A 0.30 0.30 0.0 0 0 6.49 135.57
  L 6.45 124.81
  Z
  M 42.23 126.99
  Q 41.87 124.87 44.24 124.50
  Q 47.59 123.98 48.46 126.42
  Q 48.67 126.98 49.24 126.83
  L 49.53 126.75
  Q 50.05 126.61 49.84 126.12
  Q 48.44 122.67 44.38 123.13
  C 40.70 123.55 39.11 127.81 43.22 129.28
  Q 45.21 129.99 47.27 130.38
  A 1.99 1.98 4.7 0 1 48.89 132.28
  Q 48.92 133.60 47.69 134.07
  Q 43.77 135.57 41.67 132.55
  Q 41.50 132.30 41.23 132.15
  Q 40.65 131.82 40.36 132.73
  A 1.05 1.03 31.5 0 0 40.62 133.78
  Q 44.45 137.56 48.61 135.02
  C 50.25 134.03 51.05 131.19 49.06 129.93
  C 47.19 128.74 45.01 128.62 42.95 127.85
  A 1.12 1.11 -85.0 0 1 42.23 126.99
  Z
  M 95.72 133.64
  L 95.58 135.26
  Q 95.52 135.88 96.14 135.99
  Q 97.02 136.16 97.72 135.68
  Q 98.16 135.38 97.97 134.89
  L 97.62 134.02
  Q 97.39 133.42 98.00 133.23
  L 98.82 132.96
  Q 99.41 132.78 99.46 132.16
  Q 99.57 130.96 98.28 130.92
  A 0.58 0.58 0.0 0 1 97.72 130.34
  L 97.78 125.79
  Q 97.85 120.03 94.63 124.81
  L 90.48 130.99
  A 1.29 1.29 0.0 0 0 91.54 133.00
  L 95.14 133.01
  Q 95.78 133.01 95.72 133.64
  Z
  M 107.61 127.04
  Q 107.96 124.99 109.79 124.99
  Q 110.40 124.99 110.86 125.38
  Q 111.64 126.05 112.66 125.98
  A 0.66 0.66 0.0 0 0 113.14 124.92
  C 110.60 121.55 106.49 122.90 105.75 126.65
  Q 105.12 129.82 105.70 132.51
  Q 106.39 135.68 109.57 136.03
  C 111.32 136.22 113.05 134.54 113.39 132.90
  Q 114.22 129.00 111.08 127.16
  Q 110.55 126.85 109.94 126.95
  Q 109.13 127.08 108.43 127.56
  Q 107.40 128.29 107.61 127.04
  Z
  M 125.01 123.54
  A 0.50 0.50 0.0 0 0 124.51 123.04
  L 123.97 123.04
  A 0.50 0.50 0.0 0 0 123.47 123.54
  L 123.47 139.48
  A 0.50 0.50 0.0 0 0 123.97 139.98
  L 124.51 139.98
  A 0.50 0.50 0.0 0 0 125.01 139.48
  L 125.01 123.54
  Z
  M 138.42 127.51
  L 138.40 135.32
  Q 138.40 135.99 139.07 135.99
  L 140.00 136.00
  Q 140.50 136.00 140.50 135.50
  L 140.50 124.76
  Q 140.50 121.48 138.23 123.86
  Q 136.92 125.24 135.24 126.33
  A 0.30 0.29 73.4 0 0 135.10 126.60
  L 135.15 128.65
  A 0.10 0.09 -19.6 0 0 135.30 128.72
  L 137.60 127.09
  Q 138.42 126.51 138.42 127.51
  Z
  M 155.84 128.27
  C 158.43 125.94 155.53 122.23 152.44 123.02
  Q 150.20 123.60 149.49 126.27
  Q 149.33 126.86 149.94 126.98
  Q 151.56 127.30 152.18 125.70
  Q 152.56 124.75 153.54 125.03
  L 153.78 125.10
  A 1.20 1.19 -74.2 0 1 154.61 126.59
  Q 154.33 127.56 153.32 128.10
  Q 151.49 129.08 153.37 129.95
  Q 153.69 130.09 154.04 130.18
  Q 154.64 130.34 154.93 130.89
  C 155.64 132.23 155.04 133.97 153.38 134.04
  Q 151.97 134.10 151.67 132.87
  Q 151.44 131.95 150.50 132.00
  L 150.04 132.02
  Q 148.88 132.07 149.35 133.13
  C 152.23 139.56 160.87 134.04 155.82 129.01
  Q 155.44 128.63 155.84 128.27
  Z
  M 165.59 128.77
  C 168.17 126.11 166.09 122.55 162.60 122.90
  Q 159.40 123.23 159.15 126.42
  Q 159.10 127.02 159.39 127.55
  Q 159.77 128.24 160.41 128.71
  Q 160.78 128.99 160.45 129.31
  Q 157.34 132.43 160.66 135.48
  C 161.45 136.20 162.60 136.00 163.58 136.03
  C 166.60 136.14 168.52 131.43 165.68 129.60
  Q 165.12 129.25 165.59 128.77
  Z
  M 174.47 131.67
  Q 174.31 133.62 172.63 134.04
  A 1.39 1.38 56.4 0 1 171.46 133.80
  Q 170.67 133.19 169.67 133.00
  Q 168.22 132.73 168.89 134.04
  C 169.85 135.92 172.00 136.60 173.84 135.60
  C 176.94 133.92 176.85 129.40 176.13 126.30
  C 174.98 121.36 168.95 122.13 168.46 126.96
  Q 168.13 130.32 170.79 131.74
  Q 172.31 132.54 173.68 131.28
  A 0.47 0.47 0.0 0 1 174.47 131.67
  Z
  M 208.4555 125.0090
  A 1.02 0.83 92.5 0 0 209.3292 124.0262
  A 1.02 0.83 92.5 0 0 208.5445 122.9710
  A 1.02 0.83 92.5 0 0 207.6708 123.9538
  A 1.02 0.83 92.5 0 0 208.4555 125.0090
  Z
  M 35.73 125.96
  L 35.35 126.14
  Q 34.64 126.48 35.22 127.01
  Q 35.36 127.14 35.54 127.20
  Q 36.14 127.38 36.13 128.00
  Q 36.09 130.72 36.07 133.75
  Q 36.06 135.35 37.54 135.95
  Q 38.19 136.21 38.75 135.85
  Q 39.78 135.19 38.62 134.79
  L 37.82 134.52
  Q 37.33 134.35 37.32 133.83
  L 37.22 127.76
  Q 37.21 127.17 37.79 127.25
  Q 38.26 127.31 38.70 127.17
  Q 39.49 126.94 38.87 126.39
  Q 38.39 125.97 37.71 126.03
  Q 37.07 126.08 37.17 125.45
  L 37.42 123.98
  A 0.38 0.38 0.0 0 0 37.06 123.54
  Q 36.61 123.53 36.40 123.91
  Q 36.08 124.50 36.16 125.18
  Q 36.22 125.72 35.73 125.96
  Z
  M 12.91 126.55
  Q 12.62 126.17 12.19 126.15
  A 0.50 0.50 0.0 0 0 11.66 126.66
  L 11.72 135.38
  Q 11.72 135.89 12.24 135.89
  L 12.59 135.89
  A 0.53 0.53 0.0 0 0 13.11 135.33
  Q 12.94 132.52 13.07 129.43
  Q 13.17 127.03 15.61 127.30
  Q 16.12 127.36 16.21 126.85
  L 16.26 126.56
  Q 16.30 126.37 16.12 126.30
  Q 14.73 125.77 13.70 126.63
  Q 13.26 127.00 12.91 126.55
  Z
  M 23.38 135.08
  Q 23.26 135.55 23.69 135.78
  A 0.58 0.58 0.0 0 0 24.54 135.27
  L 24.49 126.46
  Q 24.49 126.12 24.15 126.15
  L 23.55 126.21
  Q 23.33 126.23 23.33 126.45
  L 23.34 131.81
  Q 23.34 134.12 21.10 134.68
  Q 20.67 134.79 20.23 134.70
  Q 18.44 134.33 18.46 132.50
  L 18.54 126.44
  A 0.34 0.33 -0.8 0 0 18.18 126.10
  L 17.80 126.13
  A 0.46 0.45 -2.0 0 0 17.37 126.58
  L 17.41 133.66
  Q 17.41 134.21 17.75 134.63
  C 19.38 136.66 21.14 135.99 22.92 134.77
  Q 23.56 134.34 23.38 135.08
  Z
  M 31.82 131.99
  A 1.18 1.18 0.0 0 1 32.20 134.13
  Q 29.55 135.83 27.52 133.14
  A 0.37 0.37 0.0 0 0 27.00 133.06
  L 26.80 133.22
  A 0.68 0.68 0.0 0 0 26.72 134.23
  C 31.53 139.37 37.03 131.91 32.11 130.63
  Q 30.36 130.17 28.67 129.59
  A 1.03 1.02 -52.7 0 1 28.43 127.77
  Q 29.68 126.92 31.09 127.38
  Q 31.53 127.52 31.77 127.93
  Q 32.17 128.61 32.90 128.83
  Q 33.53 129.02 33.48 128.36
  Q 33.36 126.60 31.03 126.14
  Q 29.71 125.88 28.50 126.46
  Q 27.17 127.10 26.89 128.20
  Q 26.45 129.90 28.02 130.69
  Q 29.66 131.51 31.82 131.99
  Z
  M 53.25 129.73
  C 53.58 127.27 56.43 126.29 57.99 128.35
  Q 58.27 128.71 58.71 128.85
  Q 59.23 129.01 59.42 128.35
  A 0.72 0.72 0.0 0 0 59.27 127.69
  Q 56.69 124.82 53.71 126.79
  C 51.05 128.54 51.21 134.54 54.48 135.63
  Q 58.00 136.79 59.60 133.04
  Q 59.81 132.55 59.32 132.32
  L 59.04 132.19
  A 0.42 0.42 0.0 0 0 58.49 132.38
  C 58.01 133.30 57.67 134.46 56.48 134.67
  C 53.25 135.23 52.95 132.01 53.25 129.73
  Z
  M 64.7426 135.9892
  A 5.01 4.27 91.0 0 0 69.0993 131.0545
  A 5.01 4.27 91.0 0 0 64.9174 125.9708
  A 5.01 4.27 91.0 0 0 60.5607 130.9055
  A 5.01 4.27 91.0 0 0 64.7426 135.9892
  Z
  M 72.13 126.61
  Q 71.82 126.18 71.33 126.08
  Q 70.76 125.96 70.76 126.55
  L 70.75 135.50
  Q 70.75 136.01 71.25 135.99
  L 71.72 135.98
  Q 72.25 135.97 72.25 135.44
  Q 72.23 132.20 72.25 129.54
  Q 72.27 126.93 75.06 127.30
  Q 75.44 127.35 75.46 126.97
  L 75.48 126.67
  Q 75.51 126.30 75.16 126.19
  Q 73.76 125.75 72.80 126.66
  A 0.45 0.44 -40.3 0 1 72.13 126.61
  Z
  M 78.04 130.99
  L 83.96 131.00
  A 0.55 0.55 0.0 0 0 84.51 130.43
  C 84.28 124.23 75.77 124.71 76.18 131.36
  C 76.49 136.32 81.68 137.66 84.34 133.67
  A 0.32 0.32 0.0 0 0 84.18 133.19
  L 83.78 133.05
  A 0.64 0.64 0.0 0 0 83.06 133.25
  C 80.97 135.84 77.52 134.66 77.49 131.54
  A 0.55 0.54 -0.5 0 1 78.04 130.99
  Z
  M 191.79 130.99
  L 196.68 130.98
  Q 197.31 130.98 197.24 130.35
  C 196.42 123.36 187.42 125.61 188.91 132.28
  C 189.86 136.50 194.75 137.28 196.94 133.73
  Q 197.12 133.45 196.82 133.29
  L 196.60 133.17
  A 0.68 0.68 0.0 0 0 195.77 133.31
  Q 193.05 136.34 190.67 133.27
  Q 188.91 130.99 191.79 130.99
  Z
  M 202.49 133.73
  Q 202.16 134.52 201.92 133.70
  L 199.86 126.56
  Q 199.76 126.19 199.37 126.19
  L 198.72 126.18
  Q 198.28 126.17 198.44 126.58
  Q 200.02 130.59 200.99 133.95
  Q 202.20 138.12 203.63 134.02
  L 206.24 126.52
  Q 206.39 126.09 205.93 126.12
  L 205.39 126.15
  A 0.56 0.55 5.6 0 0 204.88 126.56
  Q 203.87 130.44 202.49 133.73
  Z
  M 209.2455 126.5826
  A 0.55 0.55 0.0 0 0 208.6974 126.0307
  L 208.3374 126.0294
  A 0.55 0.55 0.0 0 0 207.7855 126.5775
  L 207.7545 135.4374
  A 0.55 0.55 0.0 0 0 208.3026 135.9893
  L 208.6626 135.9906
  A 0.55 0.55 0.0 0 0 209.2145 135.4425
  L 209.2455 126.5826
  Z
  M 213.07 130.98
  L 219.00 130.98
  A 0.66 0.65 88.0 0 0 219.65 130.27
  C 219.38 126.38 214.99 124.52 212.38 127.56
  C 211.14 129.00 211.09 131.91 211.85 133.53
  C 213.33 136.71 217.64 136.66 219.42 133.73
  A 0.38 0.38 0.0 0 0 219.30 133.22
  L 219.06 133.07
  A 0.44 0.44 0.0 0 0 218.49 133.15
  C 216.20 135.79 212.72 134.91 212.55 131.52
  Q 212.52 130.98 213.07 130.98
  Z
  M 235.17 128.09
  Q 236.36 126.70 238.24 127.45
  Q 238.76 127.65 239.03 128.14
  Q 239.35 128.73 240.05 128.80
  A 0.44 0.44 0.0 0 0 240.53 128.31
  Q 240.38 127.11 239.28 126.64
  Q 235.40 124.97 233.99 128.13
  A 2.01 2.00 -69.3 0 0 235.22 130.87
  L 238.97 132.02
  A 1.19 1.18 -52.2 0 1 239.24 134.16
  Q 236.52 135.84 234.54 133.19
  A 0.41 0.41 0.0 0 0 233.90 133.18
  L 233.70 133.41
  A 0.62 0.61 43.2 0 0 233.73 134.23
  Q 236.76 137.42 240.24 134.74
  A 2.03 2.01 -21.6 0 0 241.02 132.96
  C 240.80 130.50 237.44 130.20 235.59 129.59
  A 0.94 0.94 0.0 0 1 235.17 128.09
  Z
  M 184.70 126.38
  Q 184.61 126.22 184.44 126.16
  Q 183.70 125.93 183.70 126.71
  L 183.72 135.30
  Q 183.72 135.84 184.27 135.86
  L 184.54 135.88
  A 0.54 0.54 0.0 0 0 185.10 135.34
  L 185.11 128.85
  Q 185.11 128.27 185.54 127.88
  Q 186.41 127.10 187.57 127.31
  Q 188.18 127.42 188.23 126.81
  L 188.26 126.53
  Q 188.28 126.34 188.09 126.28
  Q 186.75 125.87 185.69 126.60
  Q 185.07 127.03 184.70 126.38
  Z
  M 223.89 134.26
  L 222.03 126.49
  A 0.48 0.47 79.8 0 0 221.51 126.12
  L 221.11 126.16
  Q 220.69 126.21 220.80 126.62
  L 223.08 135.14
  Q 223.22 135.67 223.75 135.79
  Q 224.12 135.88 224.52 135.77
  A 0.84 0.83 86.9 0 0 225.13 135.08
  Q 225.64 131.68 226.64 128.57
  Q 226.94 127.64 227.14 128.60
  Q 227.78 131.68 228.55 135.24
  Q 228.74 136.12 229.57 135.97
  Q 230.13 135.87 230.29 135.32
  L 232.84 126.63
  Q 233.01 126.07 232.43 126.14
  L 232.00 126.18
  A 0.41 0.39 -85.6 0 0 231.66 126.48
  L 229.89 133.26
  A 0.37 0.37 0.0 0 1 229.18 133.26
  Q 228.43 130.27 227.92 127.04
  Q 227.86 126.65 227.53 126.44
  Q 227.07 126.14 226.50 126.19
  Q 226.05 126.24 225.95 126.68
  L 224.22 134.26
  Q 224.06 134.97 223.89 134.26
  Z
  M 103.4983 133.5181
  A 0.51 0.51 0.0 0 0 102.9874 133.0090
  L 101.8674 133.0110
  A 0.51 0.51 0.0 0 0 101.3583 133.5219
  L 101.3617 135.4819
  A 0.51 0.51 0.0 0 0 101.8726 135.9910
  L 102.9926 135.9890
  A 0.51 0.51 0.0 0 0 103.5017 135.4781
  L 103.4983 133.5181
  Z
  M 145.87 137.14
  L 144.79 138.28
  Q 144.61 138.47 144.81 138.63
  L 145.01 138.81
  A 0.33 0.32 -47.1 0 0 145.44 138.79
  Q 147.44 136.88 147.05 133.58
  Q 147.00 133.13 146.55 133.09
  L 145.55 132.99
  Q 144.76 132.91 144.76 133.70
  L 144.75 135.50
  Q 144.74 136.07 145.31 136.07
  Q 145.60 136.07 145.82 136.26
  Q 146.32 136.67 145.87 137.14
  Z"
/>
<path fill="#00b67a" d="
  M 28.93 25.72
  Q 25.67 28.21 24.33 29.13
  Q 20.03 32.10 24.99 30.45
  Q 26.78 29.85 30.09 29.36
  L 33.57 39.87
  Q 33.92 40.92 33.03 40.27
  L 21.80 32.10
  Q 20.98 31.51 20.17 32.10
  L 8.88 40.30
  Q 8.02 40.93 8.36 39.92
  L 12.79 26.53
  A 1.10 1.09 27.1 0 0 12.39 25.30
  L 0.97 17.10
  Q -0.05 16.36 1.20 16.37
  L 15.57 16.38
  A 0.56 0.55 8.5 0 0 16.10 15.99
  L 20.77 1.76
  Q 20.96 1.17 21.15 1.76
  L 25.81 15.91
  A 0.68 0.67 -8.5 0 0 26.44 16.37
  L 40.81 16.39
  Q 42.03 16.39 41.04 17.10
  L 28.93 25.72
  Z"
/>
<path fill="#191919" d="
  M 52.58 19.62
  L 46.42 19.64
  A 0.42 0.42 0.0 0 1 46.00 19.22
  L 45.99 16.79
  A 0.42 0.42 0.0 0 1 46.41 16.37
  L 63.35 16.38
  A 0.42 0.42 0.0 0 1 63.77 16.81
  L 63.72 19.19
  A 0.42 0.42 0.0 0 1 63.30 19.60
  L 57.18 19.65
  A 0.42 0.42 0.0 0 0 56.76 20.07
  L 56.74 37.61
  A 0.42 0.42 0.0 0 1 56.34 38.03
  L 53.44 38.18
  A 0.42 0.42 0.0 0 1 53.00 37.76
  L 53.00 20.04
  A 0.42 0.42 0.0 0 0 52.58 19.62
  Z"
/>
<rect fill="#191919" x="-1.74" y="-1.62" transform="translate(137.76,17.99) rotate(-0.2)" width="3.48" height="3.24" rx="0.31"/>
<rect fill="#191919" x="142.63" y="16.40" width="3.50" height="21.74" rx="0.26"/>
<path fill="#191919" d="
  M 112.00 25.63
  L 112.00 34.45
  Q 112.00 34.96 112.42 35.25
  Q 113.23 35.80 114.15 35.50
  Q 114.91 35.25 115.04 36.04
  L 115.24 37.28
  Q 115.44 38.50 114.20 38.42
  L 110.52 38.15
  Q 109.99 38.11 109.63 37.70
  Q 108.45 36.31 108.47 34.16
  Q 108.53 29.70 108.51 25.51
  Q 108.51 25.01 108.00 25.00
  L 106.46 24.99
  A 0.68 0.68 0.0 0 1 105.79 24.21
  L 105.98 22.84
  Q 106.06 22.24 106.66 22.30
  L 107.76 22.41
  A 0.68 0.67 -86.5 0 0 108.50 21.74
  L 108.51 18.21
  Q 108.51 17.68 109.04 17.65
  L 111.26 17.56
  Q 112.00 17.53 112.00 18.26
  L 112.00 21.86
  Q 112.00 22.47 112.61 22.44
  L 114.49 22.34
  A 0.64 0.64 0.0 0 1 115.17 22.99
  L 115.16 24.42
  Q 115.15 25.00 114.58 25.00
  L 112.63 25.00
  A 0.63 0.63 0.0 0 0 112.00 25.63
  Z"
/>
<path fill="#191919" d="
  M 168.50 21.75
  L 168.55 18.75
  Q 168.56 17.71 169.61 17.60
  L 170.77 17.49
  Q 171.89 17.38 171.92 18.50
  L 172.01 21.89
  A 0.51 0.51 0.0 0 0 172.51 22.39
  L 174.22 22.44
  Q 174.98 22.46 175.02 23.22
  L 175.06 24.11
  Q 175.10 24.89 174.32 24.94
  L 172.68 25.06
  Q 171.97 25.11 171.97 25.82
  L 172.00 34.43
  Q 172.00 34.90 172.37 35.18
  Q 173.20 35.80 174.30 35.50
  Q 174.99 35.30 175.00 36.02
  L 175.00 37.52
  Q 175.00 38.28 174.25 38.32
  C 171.79 38.47 168.71 38.62 168.59 35.19
  Q 168.42 30.47 168.53 25.67
  Q 168.55 25.05 167.93 25.03
  L 166.45 24.96
  A 0.70 0.69 -86.4 0 1 165.79 24.20
  L 165.89 23.16
  Q 165.95 22.53 166.58 22.46
  L 168.00 22.29
  Q 168.49 22.24 168.50 21.75
  Z"
/>
<path fill="#191919" d="
  M 66.65 24.68
  Q 68.46 22.23 71.18 21.94
  Q 72.26 21.83 72.26 22.91
  L 72.25 24.29
  Q 72.25 25.56 70.99 25.39
  C 65.21 24.62 66.54 34.57 66.49 37.60
  A 0.53 0.53 0.0 0 1 65.97 38.12
  L 63.45 38.14
  Q 63.00 38.14 63.00 37.69
  L 63.00 23.01
  Q 63.00 22.19 63.81 22.35
  Q 64.76 22.54 65.76 22.31
  A 0.49 0.49 0.0 0 1 66.36 22.84
  L 66.19 24.50
  Q 66.09 25.43 66.65 24.68
  Z"
/>
<path fill="#191919" d="
  M 99.55 25.18
  Q 97.42 24.40 95.58 25.13
  Q 94.26 25.65 95.08 27.19
  A 1.83 1.81 -9.1 0 0 96.38 28.12
  C 99.61 28.66 105.56 29.68 104.77 34.16
  Q 104.34 36.60 102.16 37.63
  C 98.44 39.39 91.39 39.02 90.97 33.61
  A 0.51 0.51 0.0 0 1 91.50 33.06
  L 93.88 33.14
  Q 94.37 33.15 94.47 33.63
  L 94.57 34.15
  A 1.21 1.19 9.0 0 0 95.17 34.96
  Q 97.78 36.42 100.30 35.36
  A 1.63 1.63 0.0 0 0 100.26 32.34
  Q 98.03 31.46 95.57 30.93
  Q 91.12 29.97 91.22 26.43
  C 91.35 21.69 98.11 21.43 101.24 22.69
  Q 103.56 23.62 104.20 26.29
  Q 104.32 26.78 103.83 26.87
  Q 100.99 27.44 100.13 25.70
  Q 99.94 25.33 99.55 25.18
  Z"
/>
<path fill="#191919" d="
  M 121.24 24.47
  L 122.67 22.94
  A 1.93 1.83 11.5 0 1 123.47 22.44
  C 127.12 21.34 131.21 22.69 132.59 26.63
  C 133.91 30.44 133.26 36.32 129.02 37.95
  Q 124.64 39.63 121.79 36.87
  Q 121.12 36.22 121.12 37.15
  L 121.13 43.56
  A 0.44 0.44 0.0 0 1 120.69 44.00
  L 118.06 44.00
  A 0.45 0.44 90.0 0 1 117.62 43.55
  L 117.63 23.02
  Q 117.64 22.42 118.23 22.40
  L 120.32 22.32
  Q 121.10 22.30 120.97 23.07
  L 120.78 24.25
  Q 120.63 25.13 121.24 24.47
  Z
  M 125.5633 35.8366
  A 5.54 4.45 88.0 0 0 129.8173 30.1447
  A 5.54 4.45 88.0 0 0 125.1767 24.7634
  A 5.54 4.45 88.0 0 0 120.9227 30.4553
  A 5.54 4.45 88.0 0 0 125.5633 35.8366
  Z"
/>
<path fill="#191919" d="
  M 164.6221 31.0331
  A 7.11 7.11 0.0 0 1 157.7774 38.3989
  L 156.3784 38.4502
  A 7.11 7.11 0.0 0 1 149.0126 31.6055
  L 148.9379 29.5669
  A 7.11 7.11 0.0 0 1 155.7826 22.2011
  L 157.1816 22.1498
  A 7.11 7.11 0.0 0 1 164.5474 28.9945
  L 164.6221 31.0331
  Z
  M 156.8671 35.8195
  A 5.52 4.55 89.2 0 0 161.3396 30.2365
  A 5.52 4.55 89.2 0 0 156.7129 24.7805
  A 5.52 4.55 89.2 0 0 152.2404 30.3635
  A 5.52 4.55 89.2 0 0 156.8671 35.8195
  Z"
/>
<path fill="#191919" d="
  M 84.23 36.54
  Q 81.07 39.77 77.04 37.82
  Q 74.96 36.81 74.58 34.08
  Q 74.15 30.90 74.42 22.72
  Q 74.43 22.41 74.74 22.40
  L 77.54 22.32
  Q 77.87 22.31 77.87 22.64
  L 77.89 33.07
  Q 77.90 35.42 80.22 35.78
  Q 81.00 35.90 81.71 35.74
  Q 84.87 35.04 84.87 31.80
  L 84.88 23.00
  A 0.61 0.60 0.0 0 1 85.49 22.40
  L 88.00 22.38
  Q 88.38 22.38 88.38 22.75
  L 88.38 37.48
  A 0.64 0.64 0.0 0 1 87.75 38.12
  L 85.01 38.14
  A 0.32 0.32 0.0 0 1 84.71 37.69
  Q 84.89 37.26 84.88 36.80
  Q 84.87 35.89 84.23 36.54
  Z"
/>
<rect fill="#191919" x="136.00" y="22.38" width="3.50" height="15.74" rx="0.31"/>
<ellipse fill="#ffffff" cx="0.00" cy="0.00" transform="translate(125.37,30.30) rotate(88.0)" rx="5.54" ry="4.45"/>
<ellipse fill="#ffffff" cx="0.00" cy="0.00" transform="translate(156.79,30.30) rotate(89.2)" rx="5.52" ry="4.55"/>
<path fill="#005128" d="
  M 28.93 25.72
  Q 29.95 27.54 30.09 29.36
  Q 26.78 29.85 24.99 30.45
  Q 20.03 32.10 24.33 29.13
  Q 25.67 28.21 28.93 25.72
  Z"
/>
<path fill="#00b67a" d="
  M 0.00 54.01
  L 54.84 54.03
  Q 55.36 54.03 55.36 54.56
  L 55.36 108.30
  Q 55.36 108.94 54.72 108.94
  L 0.00 108.97
  L 0.00 54.01
  Z
  M 36.52 90.03
  A 0.30 0.30 0.0 0 0 36.17 89.83
  L 29.17 91.32
  A 0.30 0.30 0.0 0 1 28.93 90.78
  L 46.59 77.99
  A 0.30 0.30 0.0 0 0 46.41 77.45
  L 32.63 77.54
  A 0.30 0.30 0.0 0 1 32.34 77.33
  L 28.07 64.40
  A 0.30 0.30 0.0 0 0 27.51 64.40
  L 23.25 77.31
  A 0.30 0.30 0.0 0 1 22.96 77.52
  L 9.22 77.47
  A 0.30 0.30 0.0 0 0 9.04 78.02
  L 20.16 86.07
  A 0.30 0.30 0.0 0 1 20.27 86.41
  L 16.21 99.41
  A 0.30 0.30 0.0 0 0 16.68 99.74
  L 27.57 91.74
  A 0.30 0.30 0.0 0 1 27.93 91.74
  L 38.92 99.70
  A 0.30 0.30 0.0 0 0 39.38 99.36
  L 36.52 90.03
  Z"
/>
<path fill="#00b67a" d="
  M 116.52 108.68
  A 0.32 0.32 0.0 0 1 116.20 109.00
  L 61.34 109.00
  A 0.32 0.32 0.0 0 1 61.02 108.68
  L 61.02 54.32
  A 0.32 0.32 0.0 0 1 61.34 54.00
  L 116.20 54.00
  A 0.32 0.32 0.0 0 1 116.52 54.32
  L 116.52 108.68
  Z
  M 91.19 90.96
  Q 89.70 91.24 90.93 90.36
  L 107.75 78.32
  Q 108.71 77.63 107.53 77.63
  L 94.14 77.62
  Q 93.48 77.62 93.28 76.99
  L 89.05 64.00
  Q 88.87 63.44 88.70 64.00
  L 84.48 77.21
  Q 84.34 77.66 83.88 77.66
  L 70.32 77.61
  Q 69.08 77.61 70.09 78.33
  L 80.98 86.09
  Q 81.48 86.44 81.28 87.02
  L 77.17 99.39
  Q 76.75 100.64 77.82 99.86
  L 87.83 92.52
  A 1.48 1.47 -44.6 0 1 89.58 92.53
  L 99.67 100.10
  Q 100.37 100.63 100.10 99.79
  L 97.10 90.52
  Q 96.90 89.90 96.25 90.02
  L 91.19 90.96
  Z"
/>
<path fill="#00b67a" d="
  M 177.76 108.66
  A 0.34 0.34 0.0 0 1 177.42 109.00
  L 122.54 109.00
  A 0.34 0.34 0.0 0 1 122.20 108.66
  L 122.20 54.34
  A 0.34 0.34 0.0 0 1 122.54 54.00
  L 177.42 54.00
  A 0.34 0.34 0.0 0 1 177.76 54.34
  L 177.76 108.66
  Z
  M 145.73 76.99
  A 0.75 0.75 0.0 0 1 145.02 77.50
  L 131.70 77.50
  Q 130.77 77.50 131.52 78.05
  L 142.48 86.07
  Q 142.84 86.33 142.70 86.74
  L 138.42 99.59
  Q 138.17 100.36 138.82 99.88
  L 168.86 78.05
  Q 169.60 77.50 168.68 77.50
  L 155.27 77.50
  Q 154.74 77.50 154.58 77.00
  L 150.39 64.26
  Q 150.15 63.53 149.92 64.26
  L 145.73 76.99
  Z
  M 161.12 99.54
  Q 162.20 100.32 161.79 99.06
  L 159.06 90.49
  Q 158.85 89.86 158.20 89.99
  L 151.56 91.30
  A 0.64 0.64 0.0 0 0 151.31 92.45
  L 161.12 99.54
  Z"
/>
<path fill="#00b67a" d="
  M 238.97 108.63
  A 0.37 0.37 0.0 0 1 238.60 109.00
  L 183.74 109.00
  A 0.37 0.37 0.0 0 1 183.37 108.63
  L 183.37 54.37
  A 0.37 0.37 0.0 0 1 183.74 54.00
  L 238.60 54.00
  A 0.37 0.37 0.0 0 1 238.97 54.37
  L 238.97 108.63
  Z
  M 212.13 91.23
  L 212.15 91.79
  Q 212.16 92.24 212.52 92.50
  L 222.48 99.60
  Q 223.35 100.22 223.01 99.21
  L 220.14 90.51
  Q 219.97 89.99 219.43 90.08
  L 212.13 91.23
  L 230.09 77.95
  Q 230.69 77.50 229.94 77.50
  L 216.77 77.50
  Q 215.98 77.50 215.74 76.76
  L 211.81 64.56
  Q 211.47 63.50 211.12 64.55
  L 206.97 76.99
  A 0.76 0.75 9.0 0 1 206.25 77.51
  L 192.81 77.49
  Q 192.02 77.49 192.66 77.96
  L 203.52 85.96
  Q 203.93 86.26 203.77 86.75
  L 199.82 98.82
  Q 199.31 100.38 200.65 99.43
  L 212.13 91.23
  Z"
/>
<path fill="#00b67a" d="
  M 272.79 54.42
  L 272.41 64.11
  L 268.14 77.05
  A 0.68 0.66 8.9 0 1 267.50 77.50
  L 253.95 77.49
  Q 253.18 77.49 253.80 77.95
  L 264.46 85.78
  A 1.25 1.25 0.0 0 1 264.91 87.19
  L 260.92 99.16
  Q 260.50 100.44 261.58 99.64
  L 271.89 92.04
  Q 272.19 91.82 272.40 92.12
  Q 272.50 92.26 272.53 92.52
  L 272.51 108.94
  L 245.02 108.99
  Q 244.75 108.99 244.75 108.71
  L 244.75 54.54
  Q 244.75 54.05 245.24 54.05
  L 272.79 54.42
  Z"
/>
<path fill="#dcdce6" d="
  M 298.00 54.12
  L 298.00 109.01
  L 272.51 108.94
  L 272.53 92.52
  Q 272.82 92.89 273.50 92.69
  Q 273.97 92.54 274.37 92.83
  L 283.45 99.56
  Q 284.70 100.48 284.21 99.01
  L 281.31 90.26
  Q 281.13 89.71 280.57 89.87
  Q 277.46 90.75 274.62 91.02
  Q 273.25 91.15 274.36 90.34
  L 290.98 78.22
  Q 291.96 77.50 290.75 77.50
  L 277.76 77.50
  Q 277.17 77.50 276.97 76.94
  L 272.41 64.11
  L 272.79 54.42
  C 273.50 54.33 274.05 54.02 274.76 54.01
  Q 286.40 53.91 298.00 54.12
  Z"
/>
<path fill="#ffffff" d="
  M 91.19 90.96
  L 96.25 90.02
  Q 96.90 89.90 97.10 90.52
  L 100.10 99.79
  Q 100.37 100.63 99.67 100.10
  L 89.58 92.53
  A 1.48 1.47 -44.6 0 0 87.83 92.52
  L 77.82 99.86
  Q 76.75 100.64 77.17 99.39
  L 81.28 87.02
  Q 81.48 86.44 80.98 86.09
  L 70.09 78.33
  Q 69.08 77.61 70.32 77.61
  L 83.88 77.66
  Q 84.34 77.66 84.48 77.21
  L 88.70 64.00
  Q 88.87 63.44 89.05 64.00
  L 93.28 76.99
  Q 93.48 77.62 94.14 77.62
  L 107.53 77.63
  Q 108.71 77.63 107.75 78.32
  L 90.93 90.36
  Q 89.70 91.24 91.19 90.96
  Z"
/>
<path fill="#ffffff" d="
  M 145.73 76.99
  L 149.92 64.26
  Q 150.15 63.53 150.39 64.26
  L 154.58 77.00
  Q 154.74 77.50 155.27 77.50
  L 168.68 77.50
  Q 169.60 77.50 168.86 78.05
  L 138.82 99.88
  Q 138.17 100.36 138.42 99.59
  L 142.70 86.74
  Q 142.84 86.33 142.48 86.07
  L 131.52 78.05
  Q 130.77 77.50 131.70 77.50
  L 145.02 77.50
  A 0.75 0.75 0.0 0 0 145.73 76.99
  Z"
/>
<path fill="#ffffff" d="
  M 212.13 91.23
  L 200.65 99.43
  Q 199.31 100.38 199.82 98.82
  L 203.77 86.75
  Q 203.93 86.26 203.52 85.96
  L 192.66 77.96
  Q 192.02 77.49 192.81 77.49
  L 206.25 77.51
  A 0.76 0.75 9.0 0 0 206.97 76.99
  L 211.12 64.55
  Q 211.47 63.50 211.81 64.56
  L 215.74 76.76
  Q 215.98 77.50 216.77 77.50
  L 229.94 77.50
  Q 230.69 77.50 230.09 77.95
  L 212.13 91.23
  Z"
/>
<path fill="#ffffff" d="
  M 36.52 90.03
  L 39.38 99.36
  A 0.30 0.30 0.0 0 1 38.92 99.70
  L 27.93 91.74
  A 0.30 0.30 0.0 0 0 27.57 91.74
  L 16.68 99.74
  A 0.30 0.30 0.0 0 1 16.21 99.41
  L 20.27 86.41
  A 0.30 0.30 0.0 0 0 20.16 86.07
  L 9.04 78.02
  A 0.30 0.30 0.0 0 1 9.22 77.47
  L 22.96 77.52
  A 0.30 0.30 0.0 0 0 23.25 77.31
  L 27.51 64.40
  A 0.30 0.30 0.0 0 1 28.07 64.40
  L 32.34 77.33
  A 0.30 0.30 0.0 0 0 32.63 77.54
  L 46.41 77.45
  A 0.30 0.30 0.0 0 1 46.59 77.99
  L 28.93 90.78
  A 0.30 0.30 0.0 0 0 29.17 91.32
  L 36.17 89.83
  A 0.30 0.30 0.0 0 1 36.52 90.03
  Z"
/>
<path fill="#ffffff" d="
  M 272.41 64.11
  L 276.97 76.94
  Q 277.17 77.50 277.76 77.50
  L 290.75 77.50
  Q 291.96 77.50 290.98 78.22
  L 274.36 90.34
  Q 273.25 91.15 274.62 91.02
  Q 277.46 90.75 280.57 89.87
  Q 281.13 89.71 281.31 90.26
  L 284.21 99.01
  Q 284.70 100.48 283.45 99.56
  L 274.37 92.83
  Q 273.97 92.54 273.50 92.69
  Q 272.82 92.89 272.53 92.52
  Q 272.50 92.26 272.40 92.12
  Q 272.19 91.82 271.89 92.04
  L 261.58 99.64
  Q 260.50 100.44 260.92 99.16
  L 264.91 87.19
  A 1.25 1.25 0.0 0 0 264.46 85.78
  L 253.80 77.95
  Q 253.18 77.49 253.95 77.49
  L 267.50 77.50
  A 0.68 0.66 8.9 0 0 268.14 77.05
  L 272.41 64.11
  Z"
/>
<path fill="#ffffff" d="
  M 161.12 99.54
  L 151.31 92.45
  A 0.64 0.64 0.0 0 1 151.56 91.30
  L 158.20 89.99
  Q 158.85 89.86 159.06 90.49
  L 161.79 99.06
  Q 162.20 100.32 161.12 99.54
  Z"
/>
<path fill="#ffffff" d="
  M 212.13 91.23
  L 219.43 90.08
  Q 219.97 89.99 220.14 90.51
  L 223.01 99.21
  Q 223.35 100.22 222.48 99.60
  L 212.52 92.50
  Q 212.16 92.24 212.15 91.79
  L 212.13 91.23
  Z"
/>
<path fill="#191919" d="
  M 6.45 124.81
  L 6.49 135.57
  A 0.30 0.30 0.0 0 1 6.16 135.87
  L 5.35 135.79
  A 0.30 0.30 0.0 0 1 5.08 135.48
  L 5.27 124.78
  A 0.30 0.30 0.0 0 0 4.98 124.48
  L 1.07 124.42
  A 0.30 0.30 0.0 0 1 0.79 124.05
  L 0.98 123.28
  A 0.30 0.30 0.0 0 1 1.27 123.06
  L 10.48 123.03
  A 0.30 0.30 0.0 0 1 10.76 123.21
  L 11.09 123.99
  A 0.30 0.30 0.0 0 1 10.83 124.41
  L 6.74 124.51
  A 0.30 0.30 0.0 0 0 6.45 124.81
  Z"
/>
<path fill="#191919" d="
  M 42.95 127.85
  C 45.01 128.62 47.19 128.74 49.06 129.93
  C 51.05 131.19 50.25 134.03 48.61 135.02
  Q 44.45 137.56 40.62 133.78
  A 1.05 1.03 31.5 0 1 40.36 132.73
  Q 40.65 131.82 41.23 132.15
  Q 41.50 132.30 41.67 132.55
  Q 43.77 135.57 47.69 134.07
  Q 48.92 133.60 48.89 132.28
  A 1.99 1.98 4.7 0 0 47.27 130.38
  Q 45.21 129.99 43.22 129.28
  C 39.11 127.81 40.70 123.55 44.38 123.13
  Q 48.44 122.67 49.84 126.12
  Q 50.05 126.61 49.53 126.75
  L 49.24 126.83
  Q 48.67 126.98 48.46 126.42
  Q 47.59 123.98 44.24 124.50
  Q 41.87 124.87 42.23 126.99
  A 1.12 1.11 -85.0 0 0 42.95 127.85
  Z"
/>
<path fill="#191919" d="
  M 95.14 133.01
  L 91.54 133.00
  A 1.29 1.29 0.0 0 1 90.48 130.99
  L 94.63 124.81
  Q 97.85 120.03 97.78 125.79
  L 97.72 130.34
  A 0.58 0.58 0.0 0 0 98.28 130.92
  Q 99.57 130.96 99.46 132.16
  Q 99.41 132.78 98.82 132.96
  L 98.00 133.23
  Q 97.39 133.42 97.62 134.02
  L 97.97 134.89
  Q 98.16 135.38 97.72 135.68
  Q 97.02 136.16 96.14 135.99
  Q 95.52 135.88 95.58 135.26
  L 95.72 133.64
  Q 95.78 133.01 95.14 133.01
  Z
  M 94.85 127.54
  L 92.83 130.44
  Q 92.48 130.94 93.09 130.96
  L 94.95 131.01
  A 0.70 0.70 0.0 0 0 95.67 130.30
  L 95.61 127.77
  Q 95.58 126.50 94.85 127.54
  Z"
/>
<path fill="#191919" d="
  M 108.43 127.56
  Q 109.13 127.08 109.94 126.95
  Q 110.55 126.85 111.08 127.16
  Q 114.22 129.00 113.39 132.90
  C 113.05 134.54 111.32 136.22 109.57 136.03
  Q 106.39 135.68 105.70 132.51
  Q 105.12 129.82 105.75 126.65
  C 106.49 122.90 110.60 121.55 113.14 124.92
  A 0.66 0.66 0.0 0 1 112.66 125.98
  Q 111.64 126.05 110.86 125.38
  Q 110.40 124.99 109.79 124.99
  Q 107.96 124.99 107.61 127.04
  Q 107.40 128.29 108.43 127.56
  Z
  M 109.8137 134.0234
  A 2.57 1.91 85.9 0 0 111.5351 131.3234
  A 2.57 1.91 85.9 0 0 109.4463 128.8966
  A 2.57 1.91 85.9 0 0 107.7249 131.5966
  A 2.57 1.91 85.9 0 0 109.8137 134.0234
  Z"
/>
<rect fill="#6e6e6e" x="123.47" y="123.04" width="1.54" height="16.94" rx="0.50"/>
<path fill="#191919" d="
  M 137.60 127.09
  L 135.30 128.72
  A 0.10 0.09 -19.6 0 1 135.15 128.65
  L 135.10 126.60
  A 0.30 0.29 73.4 0 1 135.24 126.33
  Q 136.92 125.24 138.23 123.86
  Q 140.50 121.48 140.50 124.76
  L 140.50 135.50
  Q 140.50 136.00 140.00 136.00
  L 139.07 135.99
  Q 138.40 135.99 138.40 135.32
  L 138.42 127.51
  Q 138.42 126.51 137.60 127.09
  Z"
/>
<path fill="#191919" d="
  M 155.82 129.01
  C 160.87 134.04 152.23 139.56 149.35 133.13
  Q 148.88 132.07 150.04 132.02
  L 150.50 132.00
  Q 151.44 131.95 151.67 132.87
  Q 151.97 134.10 153.38 134.04
  C 155.04 133.97 155.64 132.23 154.93 130.89
  Q 154.64 130.34 154.04 130.18
  Q 153.69 130.09 153.37 129.95
  Q 151.49 129.08 153.32 128.10
  Q 154.33 127.56 154.61 126.59
  A 1.20 1.19 -74.2 0 0 153.78 125.10
  L 153.54 125.03
  Q 152.56 124.75 152.18 125.70
  Q 151.56 127.30 149.94 126.98
  Q 149.33 126.86 149.49 126.27
  Q 150.20 123.60 152.44 123.02
  C 155.53 122.23 158.43 125.94 155.84 128.27
  Q 155.44 128.63 155.82 129.01
  Z"
/>
<path fill="#191919" d="
  M 165.68 129.60
  C 168.52 131.43 166.60 136.14 163.58 136.03
  C 162.60 136.00 161.45 136.20 160.66 135.48
  Q 157.34 132.43 160.45 129.31
  Q 160.78 128.99 160.41 128.71
  Q 159.77 128.24 159.39 127.55
  Q 159.10 127.02 159.15 126.42
  Q 159.40 123.23 162.60 122.90
  C 166.09 122.55 168.17 126.11 165.59 128.77
  Q 165.12 129.25 165.68 129.60
  Z
  M 164.6490 126.2143
  A 1.22 1.22 0.0 0 0 163.4248 124.9985
  L 162.5848 125.0015
  A 1.22 1.22 0.0 0 0 161.3690 126.2257
  L 161.3710 126.7857
  A 1.22 1.22 0.0 0 0 162.5952 128.0015
  L 163.4352 127.9985
  A 1.22 1.22 0.0 0 0 164.6510 126.7743
  L 164.6490 126.2143
  Z
  M 163.2557 134.1235
  A 2.15 1.88 82.9 0 0 164.8556 131.7576
  A 2.15 1.88 82.9 0 0 162.7243 129.8565
  A 2.15 1.88 82.9 0 0 161.1244 132.2224
  A 2.15 1.88 82.9 0 0 163.2557 134.1235
  Z"
/>
<path fill="#191919" d="
  M 174.47 131.67
  A 0.47 0.47 0.0 0 0 173.68 131.28
  Q 172.31 132.54 170.79 131.74
  Q 168.13 130.32 168.46 126.96
  C 168.95 122.13 174.98 121.36 176.13 126.30
  C 176.85 129.40 176.94 133.92 173.84 135.60
  C 172.00 136.60 169.85 135.92 168.89 134.04
  Q 168.22 132.73 169.67 133.00
  Q 170.67 133.19 171.46 133.80
  A 1.39 1.38 56.4 0 0 172.63 134.04
  Q 174.31 133.62 174.47 131.67
  Z
  M 172.4430 130.0575
  A 2.59 1.90 87.5 0 0 174.2282 127.3871
  A 2.59 1.90 87.5 0 0 172.2170 124.8825
  A 2.59 1.90 87.5 0 0 170.4318 127.5529
  A 2.59 1.90 87.5 0 0 172.4430 130.0575
  Z"
/>
<ellipse fill="#191919" cx="0.00" cy="0.00" transform="translate(208.50,123.99) rotate(92.5)" rx="1.02" ry="0.83"/>
<path fill="#191919" d="
  M 36.16 125.18
  Q 36.08 124.50 36.40 123.91
  Q 36.61 123.53 37.06 123.54
  A 0.38 0.38 0.0 0 1 37.42 123.98
  L 37.17 125.45
  Q 37.07 126.08 37.71 126.03
  Q 38.39 125.97 38.87 126.39
  Q 39.49 126.94 38.70 127.17
  Q 38.26 127.31 37.79 127.25
  Q 37.21 127.17 37.22 127.76
  L 37.32 133.83
  Q 37.33 134.35 37.82 134.52
  L 38.62 134.79
  Q 39.78 135.19 38.75 135.85
  Q 38.19 136.21 37.54 135.95
  Q 36.06 135.35 36.07 133.75
  Q 36.09 130.72 36.13 128.00
  Q 36.14 127.38 35.54 127.20
  Q 35.36 127.14 35.22 127.01
  Q 34.64 126.48 35.35 126.14
  L 35.73 125.96
  Q 36.22 125.72 36.16 125.18
  Z"
/>
<rect fill="#ffffff" x="-1.64" y="-1.50" transform="translate(163.01,126.50) rotate(-0.2)" width="3.28" height="3.00" rx="1.22"/>
<ellipse fill="#ffffff" cx="0.00" cy="0.00" transform="translate(172.33,127.47) rotate(87.5)" rx="2.59" ry="1.90"/>
<path fill="#191919" d="
  M 13.70 126.63
  Q 14.73 125.77 16.12 126.30
  Q 16.30 126.37 16.26 126.56
  L 16.21 126.85
  Q 16.12 127.36 15.61 127.30
  Q 13.17 127.03 13.07 129.43
  Q 12.94 132.52 13.11 135.33
  A 0.53 0.53 0.0 0 1 12.59 135.89
  L 12.24 135.89
  Q 11.72 135.89 11.72 135.38
  L 11.66 126.66
  A 0.50 0.50 0.0 0 1 12.19 126.15
  Q 12.62 126.17 12.91 126.55
  Q 13.26 127.00 13.70 126.63
  Z"
/>
<path fill="#191919" d="
  M 22.92 134.77
  C 21.14 135.99 19.38 136.66 17.75 134.63
  Q 17.41 134.21 17.41 133.66
  L 17.37 126.58
  A 0.46 0.45 -2.0 0 1 17.80 126.13
  L 18.18 126.10
  A 0.34 0.33 -0.8 0 1 18.54 126.44
  L 18.46 132.50
  Q 18.44 134.33 20.23 134.70
  Q 20.67 134.79 21.10 134.68
  Q 23.34 134.12 23.34 131.81
  L 23.33 126.45
  Q 23.33 126.23 23.55 126.21
  L 24.15 126.15
  Q 24.49 126.12 24.49 126.46
  L 24.54 135.27
  A 0.58 0.58 0.0 0 1 23.69 135.78
  Q 23.26 135.55 23.38 135.08
  Q 23.56 134.34 22.92 134.77
  Z"
/>
<path fill="#191919" d="
  M 31.82 131.99
  Q 29.66 131.51 28.02 130.69
  Q 26.45 129.90 26.89 128.20
  Q 27.17 127.10 28.50 126.46
  Q 29.71 125.88 31.03 126.14
  Q 33.36 126.60 33.48 128.36
  Q 33.53 129.02 32.90 128.83
  Q 32.17 128.61 31.77 127.93
  Q 31.53 127.52 31.09 127.38
  Q 29.68 126.92 28.43 127.77
  A 1.03 1.02 -52.7 0 0 28.67 129.59
  Q 30.36 130.17 32.11 130.63
  C 37.03 131.91 31.53 139.37 26.72 134.23
  A 0.68 0.68 0.0 0 1 26.80 133.22
  L 27.00 133.06
  A 0.37 0.37 0.0 0 1 27.52 133.14
  Q 29.55 135.83 32.20 134.13
  A 1.18 1.18 0.0 0 0 31.82 131.99
  Z"
/>
<path fill="#191919" d="
  M 53.25 129.73
  C 52.95 132.01 53.25 135.23 56.48 134.67
  C 57.67 134.46 58.01 133.30 58.49 132.38
  A 0.42 0.42 0.0 0 1 59.04 132.19
  L 59.32 132.32
  Q 59.81 132.55 59.60 133.04
  Q 58.00 136.79 54.48 135.63
  C 51.21 134.54 51.05 128.54 53.71 126.79
  Q 56.69 124.82 59.27 127.69
  A 0.72 0.72 0.0 0 1 59.42 128.35
  Q 59.23 129.01 58.71 128.85
  Q 58.27 128.71 57.99 128.35
  C 56.43 126.29 53.58 127.27 53.25 129.73
  Z"
/>
<path fill="#191919" d="
  M 64.7426 135.9892
  A 5.01 4.27 91.0 0 1 60.5607 130.9055
  A 5.01 4.27 91.0 0 1 64.9174 125.9708
  A 5.01 4.27 91.0 0 1 69.0993 131.0545
  A 5.01 4.27 91.0 0 1 64.7426 135.9892
  Z
  M 64.8200 134.8200
  A 3.81 2.98 90.0 0 0 67.8000 131.0100
  A 3.81 2.98 90.0 0 0 64.8200 127.2000
  A 3.81 2.98 90.0 0 0 61.8400 131.0100
  A 3.81 2.98 90.0 0 0 64.8200 134.8200
  Z"
/>
<path fill="#191919" d="
  M 72.80 126.66
  Q 73.76 125.75 75.16 126.19
  Q 75.51 126.30 75.48 126.67
  L 75.46 126.97
  Q 75.44 127.35 75.06 127.30
  Q 72.27 126.93 72.25 129.54
  Q 72.23 132.20 72.25 135.44
  Q 72.25 135.97 71.72 135.98
  L 71.25 135.99
  Q 70.75 136.01 70.75 135.50
  L 70.76 126.55
  Q 70.76 125.96 71.33 126.08
  Q 71.82 126.18 72.13 126.61
  A 0.45 0.44 -40.3 0 0 72.80 126.66
  Z"
/>
<path fill="#191919" d="
  M 77.49 131.54
  C 77.52 134.66 80.97 135.84 83.06 133.25
  A 0.64 0.64 0.0 0 1 83.78 133.05
  L 84.18 133.19
  A 0.32 0.32 0.0 0 1 84.34 133.67
  C 81.68 137.66 76.49 136.32 76.18 131.36
  C 75.77 124.71 84.28 124.23 84.51 130.43
  A 0.55 0.55 0.0 0 1 83.96 131.00
  L 78.04 130.99
  A 0.55 0.54 -0.5 0 0 77.49 131.54
  Z
  M 77.70 129.72
  L 82.98 129.70
  A 0.15 0.15 0.0 0 0 83.13 129.55
  L 83.13 129.48
  A 2.67 2.18 -0.2 0 0 80.46 127.31
  L 80.22 127.31
  A 2.67 2.18 -0.2 0 0 77.55 129.50
  L 77.55 129.57
  A 0.15 0.15 0.0 0 0 77.70 129.72
  Z"
/>
<path fill="#191919" d="
  M 191.79 130.99
  Q 188.91 130.99 190.67 133.27
  Q 193.05 136.34 195.77 133.31
  A 0.68 0.68 0.0 0 1 196.60 133.17
  L 196.82 133.29
  Q 197.12 133.45 196.94 133.73
  C 194.75 137.28 189.86 136.50 188.91 132.28
  C 187.42 125.61 196.42 123.36 197.24 130.35
  Q 197.31 130.98 196.68 130.98
  L 191.79 130.99
  Z
  M 190.43 129.73
  L 195.65 129.75
  A 0.19 0.19 0.0 0 0 195.84 129.56
  L 195.84 129.47
  A 2.69 2.22 0.3 0 0 193.17 127.24
  L 192.95 127.24
  A 2.69 2.22 0.3 0 0 190.24 129.45
  L 190.24 129.54
  A 0.19 0.19 0.0 0 0 190.43 129.73
  Z"
/>
<path fill="#191919" d="
  M 202.49 133.73
  Q 203.87 130.44 204.88 126.56
  A 0.56 0.55 5.6 0 1 205.39 126.15
  L 205.93 126.12
  Q 206.39 126.09 206.24 126.52
  L 203.63 134.02
  Q 202.20 138.12 200.99 133.95
  Q 200.02 130.59 198.44 126.58
  Q 198.28 126.17 198.72 126.18
  L 199.37 126.19
  Q 199.76 126.19 199.86 126.56
  L 201.92 133.70
  Q 202.16 134.52 202.49 133.73
  Z"
/>
<rect fill="#191919" x="-0.73" y="-4.98" transform="translate(208.50,131.01) rotate(0.2)" width="1.46" height="9.96" rx="0.55"/>
<path fill="#191919" d="
  M 212.55 131.52
  C 212.72 134.91 216.20 135.79 218.49 133.15
  A 0.44 0.44 0.0 0 1 219.06 133.07
  L 219.30 133.22
  A 0.38 0.38 0.0 0 1 219.42 133.73
  C 217.64 136.66 213.33 136.71 211.85 133.53
  C 211.09 131.91 211.14 129.00 212.38 127.56
  C 214.99 124.52 219.38 126.38 219.65 130.27
  A 0.66 0.65 88.0 0 1 219.00 130.98
  L 213.07 130.98
  Q 212.52 130.98 212.55 131.52
  Z
  M 212.90 129.74
  L 218.16 129.74
  A 0.19 0.19 0.0 0 0 218.35 129.55
  L 218.35 129.47
  A 2.68 2.19 0.1 0 0 215.67 127.28
  L 215.39 127.28
  A 2.68 2.19 0.1 0 0 212.71 129.47
  L 212.71 129.55
  A 0.19 0.19 0.0 0 0 212.90 129.74
  Z"
/>
<path fill="#191919" d="
  M 235.17 128.09
  A 0.94 0.94 0.0 0 0 235.59 129.59
  C 237.44 130.20 240.80 130.50 241.02 132.96
  A 2.03 2.01 -21.6 0 1 240.24 134.74
  Q 236.76 137.42 233.73 134.23
  A 0.62 0.61 43.2 0 1 233.70 133.41
  L 233.90 133.18
  A 0.41 0.41 0.0 0 1 234.54 133.19
  Q 236.52 135.84 239.24 134.16
  A 1.19 1.18 -52.2 0 0 238.97 132.02
  L 235.22 130.87
  A 2.01 2.00 -69.3 0 1 233.99 128.13
  Q 235.40 124.97 239.28 126.64
  Q 240.38 127.11 240.53 128.31
  A 0.44 0.44 0.0 0 1 240.05 128.80
  Q 239.35 128.73 239.03 128.14
  Q 238.76 127.65 238.24 127.45
  Q 236.36 126.70 235.17 128.09
  Z"
/>
<path fill="#191919" d="
  M 185.69 126.60
  Q 186.75 125.87 188.09 126.28
  Q 188.28 126.34 188.26 126.53
  L 188.23 126.81
  Q 188.18 127.42 187.57 127.31
  Q 186.41 127.10 185.54 127.88
  Q 185.11 128.27 185.11 128.85
  L 185.10 135.34
  A 0.54 0.54 0.0 0 1 184.54 135.88
  L 184.27 135.86
  Q 183.72 135.84 183.72 135.30
  L 183.70 126.71
  Q 183.70 125.93 184.44 126.16
  Q 184.61 126.22 184.70 126.38
  Q 185.07 127.03 185.69 126.60
  Z"
/>
<path fill="#191919" d="
  M 223.89 134.26
  Q 224.06 134.97 224.22 134.26
  L 225.95 126.68
  Q 226.05 126.24 226.50 126.19
  Q 227.07 126.14 227.53 126.44
  Q 227.86 126.65 227.92 127.04
  Q 228.43 130.27 229.18 133.26
  A 0.37 0.37 0.0 0 0 229.89 133.26
  L 231.66 126.48
  A 0.41 0.39 -85.6 0 1 232.00 126.18
  L 232.43 126.14
  Q 233.01 126.07 232.84 126.63
  L 230.29 135.32
  Q 230.13 135.87 229.57 135.97
  Q 228.74 136.12 228.55 135.24
  Q 227.78 131.68 227.14 128.60
  Q 226.94 127.64 226.64 128.57
  Q 225.64 131.68 225.13 135.08
  A 0.84 0.83 86.9 0 1 224.52 135.77
  Q 224.12 135.88 223.75 135.79
  Q 223.22 135.67 223.08 135.14
  L 220.80 126.62
  Q 220.69 126.21 221.11 126.16
  L 221.51 126.12
  A 0.48 0.47 79.8 0 1 222.03 126.49
  L 223.89 134.26
  Z"
/>
<ellipse fill="#ffffff" cx="0.00" cy="0.00" transform="translate(64.82,131.01) rotate(90.0)" rx="3.81" ry="2.98"/>
<path fill="#ffffff" d="
  M 77.70 129.72
  A 0.15 0.15 0.0 0 1 77.55 129.57
  L 77.55 129.50
  A 2.67 2.18 -0.2 0 1 80.22 127.31
  L 80.46 127.31
  A 2.67 2.18 -0.2 0 1 83.13 129.48
  L 83.13 129.55
  A 0.15 0.15 0.0 0 1 82.98 129.70
  L 77.70 129.72
  Z"
/>
<path fill="#ffffff" d="
  M 94.85 127.54
  Q 95.58 126.50 95.61 127.77
  L 95.67 130.30
  A 0.70 0.70 0.0 0 1 94.95 131.01
  L 93.09 130.96
  Q 92.48 130.94 92.83 130.44
  L 94.85 127.54
  Z"
/>
<path fill="#ffffff" d="
  M 190.43 129.73
  A 0.19 0.19 0.0 0 1 190.24 129.54
  L 190.24 129.45
  A 2.69 2.22 0.3 0 1 192.95 127.24
  L 193.17 127.24
  A 2.69 2.22 0.3 0 1 195.84 129.47
  L 195.84 129.56
  A 0.19 0.19 0.0 0 1 195.65 129.75
  L 190.43 129.73
  Z"
/>
<path fill="#ffffff" d="
  M 212.90 129.74
  A 0.19 0.19 0.0 0 1 212.71 129.55
  L 212.71 129.47
  A 2.68 2.19 0.1 0 1 215.39 127.28
  L 215.67 127.28
  A 2.68 2.19 0.1 0 1 218.35 129.47
  L 218.35 129.55
  A 0.19 0.19 0.0 0 1 218.16 129.74
  L 212.90 129.74
  Z"
/>
<ellipse fill="#ffffff" cx="0.00" cy="0.00" transform="translate(109.63,131.46) rotate(85.9)" rx="2.57" ry="1.91"/>
<ellipse fill="#ffffff" cx="0.00" cy="0.00" transform="translate(162.99,131.99) rotate(82.9)" rx="2.15" ry="1.88"/>
<rect fill="#191919" x="-1.07" y="-1.49" transform="translate(102.43,134.50) rotate(-0.1)" width="2.14" height="2.98" rx="0.51"/>
<path fill="#191919" d="
  M 145.82 136.26
  Q 145.60 136.07 145.31 136.07
  Q 144.74 136.07 144.75 135.50
  L 144.76 133.70
  Q 144.76 132.91 145.55 132.99
  L 146.55 133.09
  Q 147.00 133.13 147.05 133.58
  Q 147.44 136.88 145.44 138.79
  A 0.33 0.32 -47.1 0 1 145.01 138.81
  L 144.81 138.63
  Q 144.61 138.47 144.79 138.28
  L 145.87 137.14
  Q 146.32 136.67 145.82 136.26
  Z"
/>
</svg>
