<?xml version="1.0" encoding="UTF-8" standalone="no"?>
<!DOCTYPE svg PUBLIC "-//W3C//DTD SVG 1.1//EN" "http://www.w3.org/Graphics/SVG/1.1/DTD/svg11.dtd">
<svg xmlns="http://www.w3.org/2000/svg" version="1.1" viewBox="0.00 0.00 300.00 57.00">
<path fill="#ffffff" d="
  M 0.00 0.00
  L 300.00 0.00
  L 300.00 1.12
  L 272.57 1.09
  L 245.24 1.05
  Q 244.75 1.05 244.75 1.54
  L 244.75 55.72
  A 0.28 0.27 0.0 0 0 245.03 55.99
  L 272.50 55.93
  L 300.00 55.95
  L 300.00 57.00
  L 0.00 57.00
  L 0.00 55.97
  L 54.86 55.99
  Q 55.36 55.99 55.36 55.49
  L 55.36 1.55
  Q 55.36 1.03 54.84 1.03
  L 0.00 1.01
  L 0.00 0.00
  Z
  M 116.52 1.37
  A 0.37 0.37 0.0 0 0 116.15 1.00
  L 61.39 1.00
  A 0.37 0.37 0.0 0 0 61.02 1.37
  L 61.02 55.63
  A 0.37 0.37 0.0 0 0 61.39 56.00
  L 116.15 56.00
  A 0.37 0.37 0.0 0 0 116.52 55.63
  L 116.52 1.37
  Z
  M 177.75 1.41
  A 0.41 0.41 0.0 0 0 177.34 1.00
  L 122.62 1.00
  A 0.41 0.41 0.0 0 0 122.21 1.41
  L 122.21 55.59
  A 0.41 0.41 0.0 0 0 122.62 56.00
  L 177.34 56.00
  A 0.41 0.41 0.0 0 0 177.75 55.59
  L 177.75 1.41
  Z
  M 238.60 56.00
  A 0.38 0.38 0.0 0 0 238.98 55.62
  L 238.98 1.38
  A 0.38 0.38 0.0 0 0 238.60 1.00
  L 183.76 1.00
  A 0.38 0.38 0.0 0 0 183.38 1.38
  L 183.37 55.62
  A 0.38 0.38 0.0 0 0 183.75 56.00
  L 238.60 56.00
  Z"
/>
<path fill="#00b67a" d="
  M 0.00 1.01
  L 54.84 1.03
  Q 55.36 1.03 55.36 1.55
  L 55.36 55.49
  Q 55.36 55.99 54.86 55.99
  L 0.00 55.97
  L 0.00 1.01
  Z
  M 36.52 37.03
  A 0.30 0.30 0.0 0 0 36.17 36.83
  L 29.18 38.32
  A 0.30 0.30 0.0 0 1 28.94 37.78
  L 46.60 24.99
  A 0.30 0.30 0.0 0 0 46.42 24.45
  L 32.64 24.53
  A 0.30 0.30 0.0 0 1 32.35 24.32
  L 28.07 11.41
  A 0.30 0.30 0.0 0 0 27.51 11.41
  L 23.24 24.31
  A 0.30 0.30 0.0 0 1 22.95 24.52
  L 9.20 24.47
  A 0.30 0.30 0.0 0 0 9.02 25.02
  L 20.16 33.07
  A 0.30 0.30 0.0 0 1 20.27 33.41
  L 16.22 46.39
  A 0.30 0.30 0.0 0 0 16.68 46.72
  L 27.56 38.75
  A 0.30 0.30 0.0 0 1 27.92 38.75
  L 38.91 46.69
  A 0.30 0.30 0.0 0 0 39.37 46.36
  L 36.52 37.03
  Z"
/>
<path fill="#00b67a" d="
  M 116.52 55.63
  A 0.37 0.37 0.0 0 1 116.15 56.00
  L 61.39 56.00
  A 0.37 0.37 0.0 0 1 61.02 55.63
  L 61.02 1.37
  A 0.37 0.37 0.0 0 1 61.39 1.00
  L 116.15 1.00
  A 0.37 0.37 0.0 0 1 116.52 1.37
  L 116.52 55.63
  Z
  M 91.18 37.96
  Q 89.69 38.23 90.93 37.35
  L 107.76 25.32
  Q 108.73 24.63 107.53 24.63
  L 94.07 24.62
  Q 93.48 24.62 93.30 24.06
  L 89.07 11.07
  Q 88.87 10.47 88.68 11.07
  L 84.47 24.26
  Q 84.35 24.64 83.95 24.64
  L 70.23 24.63
  Q 69.12 24.63 70.02 25.27
  L 80.98 33.10
  Q 81.48 33.45 81.28 34.03
  L 77.15 46.38
  Q 76.72 47.68 77.82 46.87
  L 87.64 39.65
  Q 88.71 38.87 89.76 39.66
  L 99.66 47.11
  Q 100.40 47.66 100.11 46.78
  L 97.11 37.54
  Q 96.91 36.90 96.25 37.02
  L 91.18 37.96
  Z"
/>
<path fill="#00b67a" d="
  M 177.75 55.59
  A 0.41 0.41 0.0 0 1 177.34 56.00
  L 122.62 56.00
  A 0.41 0.41 0.0 0 1 122.21 55.59
  L 122.21 1.41
  A 0.41 0.41 0.0 0 1 122.62 1.00
  L 177.34 1.00
  A 0.41 0.41 0.0 0 1 177.75 1.41
  L 177.75 55.59
  Z
  M 145.73 23.99
  A 0.75 0.75 0.0 0 1 145.02 24.50
  L 131.78 24.50
  Q 130.76 24.51 131.59 25.11
  L 142.56 33.12
  A 0.49 0.47 27.4 0 1 142.74 33.66
  L 138.41 46.58
  Q 138.14 47.36 138.81 46.88
  L 168.85 25.05
  Q 169.61 24.50 168.68 24.50
  L 155.27 24.50
  Q 154.74 24.50 154.58 24.00
  L 150.38 11.26
  Q 150.15 10.56 149.92 11.26
  L 145.73 23.99
  Z
  M 151.02 38.47
  A 0.35 0.35 0.0 0 0 150.89 39.09
  L 161.35 46.73
  A 0.35 0.35 0.0 0 0 161.89 46.34
  L 158.96 37.14
  A 0.35 0.35 0.0 0 0 158.55 36.90
  L 151.02 38.47
  Z"
/>
<path fill="#00b67a" d="
  M 238.60 56.00
  L 183.75 56.00
  A 0.38 0.38 0.0 0 1 183.37 55.62
  L 183.38 1.38
  A 0.38 0.38 0.0 0 1 183.76 1.00
  L 238.60 1.00
  A 0.38 0.38 0.0 0 1 238.98 1.38
  L 238.98 55.62
  A 0.38 0.38 0.0 0 1 238.60 56.00
  Z
  M 212.13 38.23
  L 212.14 38.76
  A 0.93 0.91 17.4 0 0 212.53 39.49
  L 222.47 46.60
  Q 223.34 47.22 223.01 46.21
  L 220.14 37.50
  Q 219.97 36.99 219.44 37.08
  L 212.13 38.23
  L 230.09 24.95
  Q 230.70 24.50 229.94 24.50
  L 216.77 24.50
  Q 215.99 24.50 215.75 23.76
  L 211.79 11.55
  Q 211.46 10.52 211.12 11.55
  L 206.97 23.99
  Q 206.80 24.51 206.25 24.51
  L 192.82 24.49
  Q 192.03 24.49 192.66 24.96
  L 203.52 32.96
  Q 203.93 33.26 203.77 33.75
  L 199.83 45.81
  Q 199.30 47.42 200.68 46.43
  L 212.13 38.23
  Z"
/>
<path fill="#00b67a" d="
  M 272.57 1.09
  L 272.38 11.35
  L 268.05 24.06
  A 0.66 0.65 9.3 0 1 267.43 24.50
  L 253.95 24.50
  Q 253.19 24.50 253.80 24.95
  L 264.46 32.78
  A 1.25 1.25 0.0 0 1 264.91 34.19
  L 260.94 46.15
  Q 260.53 47.36 261.57 46.61
  L 272.45 38.78
  L 272.50 55.93
  L 245.03 55.99
  A 0.28 0.27 -0.0 0 1 244.75 55.72
  L 244.75 1.54
  Q 244.75 1.05 245.24 1.05
  L 272.57 1.09
  Z"
/>
<path fill="#dcdce6" d="
  M 300.00 1.12
  L 300.00 55.95
  L 272.50 55.93
  L 272.45 38.78
  Q 273.33 38.73 274.00 39.38
  C 276.68 41.96 280.25 44.19 283.28 46.46
  Q 284.72 47.54 284.15 45.83
  L 281.28 37.24
  Q 281.11 36.75 280.61 36.88
  Q 277.78 37.65 274.76 38.01
  Q 273.16 38.20 274.46 37.26
  L 290.99 25.22
  Q 291.97 24.50 290.76 24.50
  L 277.65 24.50
  Q 277.19 24.50 277.03 24.07
  L 272.38 11.35
  L 272.57 1.09
  L 300.00 1.12
  Z"
/>
<path fill="#ffffff" d="
  M 91.18 37.96
  L 96.25 37.02
  Q 96.91 36.90 97.11 37.54
  L 100.11 46.78
  Q 100.40 47.66 99.66 47.11
  L 89.76 39.66
  Q 88.71 38.87 87.64 39.65
  L 77.82 46.87
  Q 76.72 47.68 77.15 46.38
  L 81.28 34.03
  Q 81.48 33.45 80.98 33.10
  L 70.02 25.27
  Q 69.12 24.63 70.23 24.63
  L 83.95 24.64
  Q 84.35 24.64 84.47 24.26
  L 88.68 11.07
  Q 88.87 10.47 89.07 11.07
  L 93.30 24.06
  Q 93.48 24.62 94.07 24.62
  L 107.53 24.63
  Q 108.73 24.63 107.76 25.32
  L 90.93 37.35
  Q 89.69 38.23 91.18 37.96
  Z"
/>
<path fill="#ffffff" d="
  M 145.73 23.99
  L 149.92 11.26
  Q 150.15 10.56 150.38 11.26
  L 154.58 24.00
  Q 154.74 24.50 155.27 24.50
  L 168.68 24.50
  Q 169.61 24.50 168.85 25.05
  L 138.81 46.88
  Q 138.14 47.36 138.41 46.58
  L 142.74 33.66
  A 0.49 0.47 27.4 0 0 142.56 33.12
  L 131.59 25.11
  Q 130.76 24.51 131.78 24.50
  L 145.02 24.50
  A 0.75 0.75 0.0 0 0 145.73 23.99
  Z"
/>
<path fill="#ffffff" d="
  M 212.13 38.23
  L 200.68 46.43
  Q 199.30 47.42 199.83 45.81
  L 203.77 33.75
  Q 203.93 33.26 203.52 32.96
  L 192.66 24.96
  Q 192.03 24.49 192.82 24.49
  L 206.25 24.51
  Q 206.80 24.51 206.97 23.99
  L 211.12 11.55
  Q 211.46 10.52 211.79 11.55
  L 215.75 23.76
  Q 215.99 24.50 216.77 24.50
  L 229.94 24.50
  Q 230.70 24.50 230.09 24.95
  L 212.13 38.23
  Z"
/>
<path fill="#ffffff" d="
  M 36.52 37.03
  L 39.37 46.36
  A 0.30 0.30 0.0 0 1 38.91 46.69
  L 27.92 38.75
  A 0.30 0.30 0.0 0 0 27.56 38.75
  L 16.68 46.72
  A 0.30 0.30 0.0 0 1 16.22 46.39
  L 20.27 33.41
  A 0.30 0.30 0.0 0 0 20.16 33.07
  L 9.02 25.02
  A 0.30 0.30 0.0 0 1 9.20 24.47
  L 22.95 24.52
  A 0.30 0.30 0.0 0 0 23.24 24.31
  L 27.51 11.41
  A 0.30 0.30 0.0 0 1 28.07 11.41
  L 32.35 24.32
  A 0.30 0.30 0.0 0 0 32.64 24.53
  L 46.42 24.45
  A 0.30 0.30 0.0 0 1 46.60 24.99
  L 28.94 37.78
  A 0.30 0.30 0.0 0 0 29.18 38.32
  L 36.17 36.83
  A 0.30 0.30 0.0 0 1 36.52 37.03
  Z"
/>
<path fill="#ffffff" d="
  M 272.38 11.35
  L 277.03 24.07
  Q 277.19 24.50 277.65 24.50
  L 290.76 24.50
  Q 291.97 24.50 290.99 25.22
  L 274.46 37.26
  Q 273.16 38.20 274.76 38.01
  Q 277.78 37.65 280.61 36.88
  Q 281.11 36.75 281.28 37.24
  L 284.15 45.83
  Q 284.72 47.54 283.28 46.46
  C 280.25 44.19 276.68 41.96 274.00 39.38
  Q 273.33 38.73 272.45 38.78
  L 261.57 46.61
  Q 260.53 47.36 260.94 46.15
  L 264.91 34.19
  A 1.25 1.25 0.0 0 0 264.46 32.78
  L 253.80 24.95
  Q 253.19 24.50 253.95 24.50
  L 267.43 24.50
  A 0.66 0.65 9.3 0 0 268.05 24.06
  L 272.38 11.35
  Z"
/>
<path fill="#ffffff" d="
  M 151.02 38.47
  L 158.55 36.90
  A 0.35 0.35 0.0 0 1 158.96 37.14
  L 161.89 46.34
  A 0.35 0.35 0.0 0 1 161.35 46.73
  L 150.89 39.09
  A 0.35 0.35 0.0 0 1 151.02 38.47
  Z"
/>
<path fill="#ffffff" d="
  M 212.13 38.23
  L 219.44 37.08
  Q 219.97 36.99 220.14 37.50
  L 223.01 46.21
  Q 223.34 47.22 222.47 46.60
  L 212.53 39.49
  A 0.93 0.91 17.4 0 1 212.14 38.76
  L 212.13 38.23
  Z"
/>
</svg>
